<?xml version="1.0" encoding="utf-8"?>
<!-- Generator: Adobe Illustrator 24.3.0, SVG Export Plug-In . SVG Version: 6.00 Build 0)  -->
<svg version="1.1" xmlns="http://www.w3.org/2000/svg" xmlns:xlink="http://www.w3.org/1999/xlink" x="0px" y="0px"
	 viewBox="0 0 1366 768" style="enable-background:new 0 0 1366 768;" xml:space="preserve">
<style type="text/css">
	.st0{display:none;}
	.st1{display:inline;fill:#13008B;}
	.st2{display:inline;}
	.st3{fill:#13008B;}
	.st4{display:inline;fill:#B92400;}
	.st5{fill:#B92400;}
	.st6{fill:none;stroke:#B92400;stroke-miterlimit:10;}
	.st7{font-family:'MyriadPro-Regular';}
	.st8{font-size:36px;}
</style>
<g id="myDrawing">
	<g id="Drawing">
		<path d="M130.22,96.54c-1.93-0.14-1.92,2.86,0,3c2.12,0.15,1.67,4.34,1.43,5.67c-0.69,3.72-1.46,7.44-2.52,11.08
			c-1.94,6.61-5.08,12.98-10.5,17.41c-4.74,3.87-10.94,5.49-16.8,3.41c-2.65-0.94-5.13-2.7-6.63-5.11
			c-1.97-3.14-2.11-6.93-2.02-10.53c0.01-0.48,0.03-0.96,0.04-1.44c1.33-8.91,1.22-18.04,1.08-27.02c-0.03-1.94-2.92-1.93-3,0
			c-0.36,8.89-0.84,17.79-1.07,26.68c-0.06,0.4-0.11,0.81-0.18,1.21c-0.75,4.42-1.85,8.84-3.59,12.98c-1.56,3.71-3.83,7.4-7.35,9.52
			c-3.23,1.94-7.3,2.49-10.59,0.39c-2.91-1.85-4.54-5.23-5.55-8.42c-2.51-7.94-2.71-16.85-1.74-25.06
			c0.58-4.92,1.73-9.79,3.35-14.47c0.79-2.28,1.71-4.52,2.75-6.71c0.44-0.92,0.82-1.96,1.57-2.68c0.28-0.27,0.6-0.53,0.95-0.7
			c0.32-0.15,0.41-0.12,0.4-0.15c0.88,1.45,3.47,0.67,2.77-1.03c-0.76-1.84-2.43-2.4-4.24-1.62c-2.01,0.87-3.04,2.57-3.95,4.46
			c-2.17,4.51-3.88,9.25-5.05,14.11c-2.36,9.75-2.67,19.96-0.86,29.83c1.41,7.71,5.55,17.31,14.92,16.77
			c9.72-0.56,14.66-9.88,17.18-18.21c0.37,1.25,0.86,2.45,1.57,3.58c1.76,2.8,4.45,4.86,7.48,6.12c6.63,2.75,14,1.25,19.63-3
			c6.31-4.77,10.03-11.88,12.25-19.33c0.68-2.28,1.23-4.59,1.72-6.92c0.45-2.12,1.01-4.29,1.15-6.46
			C135.02,100.72,133.97,96.8,130.22,96.54z"/>
		<path d="M171.35,132.93c-2.92,4.96-9.16,7.69-14.8,6.51c-5.69-1.19-9.87-6.37-10.51-12.06c-0.18-1.57-0.05-3.11,0.33-4.56
			c5.72,4.19,13.97,4.71,20,0.78c1.67-1.09,3.31-2.53,3.83-4.54c0.45-1.78-0.04-3.64-1.1-5.11c-2.32-3.21-6.28-4.58-10.13-4.36
			c-7.43,0.43-14.53,6.05-15.77,13.55c-1.19,7.16,2.65,15.03,9.33,18.1c7.58,3.49,17.2,0.36,21.42-6.8
			C174.92,132.78,172.33,131.27,171.35,132.93z M154.81,113.53c2.69-1.05,6.03-1.46,8.74-0.27c2.62,1.15,5.32,4.15,2.65,6.71
			c-4.94,4.73-13.65,4.18-18.69-0.05C149.05,117.06,151.65,114.76,154.81,113.53z"/>
		<path d="M209.2,121.84c-0.41-4.33-3.93-8.32-8.33-8.81c-5.01-0.56-8.53,4.09-10.62,8.03c-0.92,1.73-1.61,3.54-2.13,5.4
			c0-0.4,0.01-0.79,0.01-1.18c0.07-4.4,0.18-8.8,0.27-13.21l0.57-27.2c0.04-1.93-2.96-1.93-3,0c-0.2,9.4-0.39,18.8-0.59,28.19
			c-0.09,4.49-0.25,8.99-0.27,13.49c-0.01,3.45,0.27,6.95,1.62,10.12c-0.46,0.9,0.24,2.34,1.52,2.26c0.44,0.17,0.93,0.05,1.31-0.24
			c4.78-0.94,9.71-2.09,13.64-5.09C206.79,130.87,209.64,126.5,209.2,121.84z M201.25,131.34c-3.25,2.37-7.23,3.39-11.16,4.19
			c-0.25-3.63,0.36-7.3,1.69-10.68c1.26-3.2,3.82-8.25,7.64-8.84c3.3-0.51,6.41,2.75,6.77,5.85
			C206.64,125.63,204.16,129.22,201.25,131.34z"/>
		<path d="M279.08,107.49c0.38-0.25,0.78-0.49,1.15-0.76c3.71-2.79,6.15-7.03,6.89-11.6c0.73-4.48,0.03-9.26-2.46-13.12
			c-2.48-3.84-6.53-6.48-10.95-7.53c-5.07-1.21-10.64-0.44-14.95,2.58c-1.57,1.1-0.07,3.7,1.51,2.59c2.25-1.57,4.9-2.44,7.61-2.65
			c-1.14,10.52-2.21,21.05-3.24,31.58c-0.9,0.56-1.74,1.21-2.5,1.97c-1.06,1.06,0.01,2.91,1.46,2.51c0.21-0.06,0.42-0.11,0.62-0.17
			c-0.39,4.04-0.8,8.08-1.17,12.13c-0.43,4.69-0.86,9.37-1.27,14.06c-0.09,1.03,1.03,1.64,1.9,1.45c3.46-0.75,5.65-4.6,4.53-7.96
			c-0.46-1.38-2.24-1.27-2.8-0.32c0.61-6.72,1.24-13.45,1.88-20.17c2.72-0.72,5.45-1.5,8.03-2.6c2.68,0.5,5.22,1.82,7.11,3.9
			c4.84,5.36,4.75,13.68,0.47,19.31c-2.51,3.3-6.17,5.61-10.17,6.64c-1.87,0.48-1.08,3.38,0.8,2.89
			c8.34-2.15,15.28-9.42,15.59-18.26C289.35,116.88,285.39,110.19,279.08,107.49z M265.05,136.04c0.08-0.9,0.17-1.8,0.25-2.71
			c0,0.01,0,0.02,0.01,0.04C265.62,134.3,265.5,135.26,265.05,136.04z M269.54,89.53c0.43-4.16,0.88-8.32,1.33-12.48
			c4.06,0.42,7.96,2.29,10.54,5.57c4.88,6.2,3.64,16.18-2.32,21.22c-1.22,1.03-2.59,1.86-4.05,2.55c-0.05-0.01-0.1-0.02-0.15-0.03
			c-2.4-0.29-4.84-0.04-7.11,0.73C268.35,101.23,268.93,95.38,269.54,89.53z"/>
		<path d="M333.75,108.28c-10.76-1.23-21.6,4.22-27.76,12.95c0.73-4.68,1.62-9.33,2.68-13.94c0.43-1.88-2.46-2.68-2.89-0.8
			c-1.82,7.9-3.16,15.91-4.03,23.97c-0.19,1.71,2.51,1.99,2.95,0.4c3.38-12.43,16.3-21.04,29.06-19.57
			C335.66,111.49,335.65,108.49,333.75,108.28z"/>
		<path d="M347.77,111.21c-0.63-1.81-3.53-1.03-2.89,0.8c2.57,7.4-0.08,16.15-6.26,20.96c-1.41,1.1-3.02,2.05-4.8,2.37
			c-1.28,0.23-3.21,0.23-3.83-1.17c-0.41-0.93-0.09-2.14,0.1-3.08c0.23-1.12,0.52-2.23,0.88-3.32c0.67-2.06,1.58-4.03,2.68-5.9
			c2.54-4.3,6.09-7.92,10.35-10.51c1.65-1,0.14-3.6-1.51-2.59c-4.48,2.72-8.26,6.48-11.03,10.93c-1.41,2.27-2.55,4.73-3.38,7.27
			c-0.75,2.31-1.72,5.28-1.07,7.71c1.29,4.81,7.47,4.21,10.88,2.34c4.12-2.25,7.31-6.04,9.14-10.34
			C349.11,121.8,349.52,116.24,347.77,111.21z"/>
		<path d="M393.99,113.89c-1.23,8.06-5.43,15.93-12,20.9c-1.52,1.15-3.37,2.21-5.34,2.15c-1.72-0.05-3.48-0.98-3.86-2.77
			c-0.45-2.12,0.18-4.7,0.38-6.82c0.24-2.59,0.48-5.19,0.72-7.78c0.16-1.72-2.5-1.98-2.95-0.4c-1.02,3.6-2.51,7.02-4.48,10.2
			c-1.61,2.61-3.79,6.2-7.01,6.97c-3.44,0.82-3.46-3.41-3.11-5.66c0.64-4.08,1.5-8.14,2.25-12.2c0.35-1.89-2.54-2.7-2.89-0.8
			c-0.47,2.57-0.95,5.13-1.42,7.7c-0.4,2.18-0.94,4.39-1.08,6.61c-0.23,3.55,1.49,7.63,5.66,7.46c4.18-0.17,7.14-3.95,9.27-7.11
			c0.64-0.95,1.25-1.93,1.81-2.94c-0.13,1.25-0.24,2.49-0.23,3.73c0.04,3.71,2.62,6.36,6.28,6.76c3.73,0.41,7.05-1.91,9.68-4.29
			c2.79-2.52,5.16-5.53,7.01-8.8c2.12-3.75,3.55-7.86,4.2-12.11C397.17,112.8,394.28,111.98,393.99,113.89z"/>
		<path d="M427.12,109.99c-7.6-1.75-16.08,1.75-19.99,8.57c-3.98,6.95-2.6,16.36,3.1,21.95c0.2,0.2,1.01,0.79,0.98,1.12
			c-0.01,0.16-1.26,0.85-1.45,0.98c-1.09,0.72-2.23,1.38-3.39,1.98c-2.49,1.27-5.12,2.17-7.84,2.79c-1.88,0.43-1.09,3.32,0.8,2.89
			c4.58-1.04,9.02-2.95,12.85-5.68c1.67-1.2,2.72-2.94,1.39-4.86c-0.55-0.79-1.31-1.4-1.95-2.11c-0.66-0.74-1.23-1.56-1.72-2.43
			c-3.83-6.74-2.14-15.63,4.41-19.97c3.52-2.34,7.88-3.3,12.02-2.35C428.2,113.31,429,110.42,427.12,109.99z"/>
		<path d="M447.46,136.99c-3.52,3.08-8.11,4.79-12.77,4.9c-3.98,0.1-10.75-0.77-11.56-5.56c-0.38-2.23-0.3-4.67,0.21-7.05
			c0.32,0.47,0.87,0.79,1.57,0.69c8.01-1.25,15.73-3.85,22.89-7.65c0.75-0.4,0.89-1.35,0.54-2.05c-2.15-4.25-6.78-6.48-11.41-6.61
			c-5.12-0.14-9.66,2.36-12.7,6.41c-3.21,4.28-4.56,9.98-4.2,15.27c0.21,3.04,1.32,5.55,4.03,7.14c2.4,1.4,5.26,2.07,8,2.34
			c6.33,0.63,12.77-1.51,17.54-5.68C451.04,137.84,448.91,135.72,447.46,136.99z M435.18,116.7c3.64-0.38,7.48,0.82,9.7,3.72
			c-6.54,3.29-13.54,5.52-20.78,6.65c-0.07,0.01-0.13,0.03-0.19,0.05C425.65,121.83,429.53,117.29,435.18,116.7z"/>
		<path d="M494.41,116.27c-13.44-0.05-26.32,7.36-33.62,18.55c-0.22,0.34-0.41,0.69-0.62,1.04c0.66-5.85,1.33-11.71,1.99-17.56
			c0.22-1.92-2.78-1.9-3,0c-1.03,9.05-2.05,18.1-3.08,27.15c-0.2,1.72,2.5,1.98,2.95,0.4c3.4-11.9,13.28-21.45,25.05-25.05
			c3.36-1.03,6.82-1.54,10.34-1.53C496.34,119.28,496.34,116.28,494.41,116.27z"/>
		<path d="M84.33,631.89c-6.9-49.34-8.41-99.25-7.84-149.01c0.57-49.61,3.17-99.17,4.55-148.76c0.77-27.78,1.16-55.58,0.6-83.38
			c-0.04-1.93-3.04-1.93-3,0c1,49.86-1.05,99.71-2.88,149.53c-1.83,49.72-3.45,99.52-1.5,149.26c0.99,25.34,2.95,50.64,6.2,75.79
			c-0.94,0-1.83,0.7-1.37,1.78c0.78,1.86,1.57,3.72,2.35,5.59C82.19,634.47,84.6,633.82,84.33,631.89z"/>
		<path d="M524.74,557.73c-0.7-11.36-2.54-22.59-4.59-33.78c-2.11-11.51-4.32-23-5.61-34.64c-1.31-11.9-1.89-23.87-2.1-35.84
			c-0.4-23.7,0.37-47.43,0.77-71.12c0.41-23.91,0.81-47.82,1.22-71.73c0.46-27.03,0.92-54.06,1.38-81.09c0.01-0.87-0.7-1.42-1.5-1.5
			c-57.04-5.87-114.39-8.69-171.74-8.44c-57.34,0.25-114.67,3.56-171.66,9.92c-31.95,3.57-63.8,8.09-95.49,13.56
			c-1.9,0.33-1.09,3.22,0.8,2.89c56.67-9.77,113.85-16.5,171.23-20.14c56.94-3.61,114.07-4.21,171.06-1.76
			c31.48,1.35,62.92,3.64,94.26,6.83c-0.81,47.67-1.62,95.34-2.43,143.01c-0.4,23.75-1.09,47.51-1,71.26
			c0.09,23.37,1.83,46.42,6.02,69.43c2.35,12.88,4.94,25.75,6.04,38.82c1.12,13.31,0.83,26.7-0.76,39.96c-0.23,1.91,2.77,1.9,3,0
			C525.08,581.53,525.47,569.61,524.74,557.73z"/>
		<path d="M536.33,611.13c-1.86-8.64-3.71-17.28-5.57-25.92c-0.41-1.89-3.3-1.09-2.89,0.8c1.72,8.01,3.44,16.01,5.16,24.02
			c-13.95-0.1-27.82,1.59-41.64,3.35c-14.21,1.81-28.37,3.38-42.71,3.65c-14.66,0.27-29.33-0.23-43.98-0.41
			c-14.48-0.18-28.97-0.24-43.45-0.18c-58.53,0.22-117.06,2.31-175.45,6.27c-32.74,2.22-65.44,5.03-98.07,8.42
			c-1.9,0.2-1.92,3.2,0,3c58.22-6.05,116.63-10.24,175.12-12.56c29.24-1.16,58.5-1.85,87.77-2.07c29.2-0.22,58.37,0.48,87.56,0.6
			c16.12,0.07,32.02-1.04,48.01-3.05c16.17-2.03,32.36-4.31,48.7-4.01C535.9,613.04,536.53,612.05,536.33,611.13z"/>
		<path d="M456.03,250.1c-46.65-0.38-93.32,0.39-139.93,2.33c-46.61,1.94-93.18,5.04-139.64,9.29c-26.18,2.4-52.32,5.17-78.42,8.3
			c-1.89,0.23-1.92,3.23,0,3c46.32-5.55,92.78-9.96,139.33-13.21c46.54-3.24,93.17-5.33,139.81-6.25
			c25.63-0.51,51.26-0.65,76.89-0.46c-2.89,10.36-4.26,21.1-4.06,31.85c-21.89-1.1-43.81-1.32-65.71-0.81
			c0-1.58,0.01-3.17,0.01-4.75c0.02-7.11,0.03-14.22,0.05-21.33c0-0.29-0.07-0.53-0.19-0.73c0.02-0.45,0.04-0.91,0.06-1.36
			c0.06-1.93-2.94-1.93-3,0c-0.31,9.46-1.01,18.9-2.11,28.3c-19.73,0.57-39.45,1.72-59.12,3.4c-43.73,3.72-87.23,9.9-130.45,17.49
			c-23.8,4.18-47.53,8.8-71.2,13.68c-0.02-12.99-0.17-25.99-0.48-38.98c-0.05-1.93-3.05-1.93-3,0c0.32,13.6,0.48,27.2,0.49,40.81
			c0,1.02,0.95,1.64,1.9,1.45c43.1-8.9,86.39-16.95,129.97-23.12c43.35-6.14,87-10.39,130.78-11.7c0.25-0.01,0.5-0.01,0.75-0.02
			c-0.2,1.61-0.41,3.21-0.64,4.82c-0.11,0.81,0.2,1.6,1.05,1.85c0.7,0.2,1.73-0.25,1.85-1.05c0.08-0.56,0.15-1.13,0.22-1.69
			c1.14,0.17,2.47-0.48,2.87-1.86c0.2-0.69,0.24-1.44,0.24-2.19c22.39-0.53,44.8-0.28,67.17,0.89c0.79,0.04,1.53-0.72,1.5-1.5
			c-0.39-11.69,1.11-23.31,4.46-34.52C457.76,251.05,456.98,250.1,456.03,250.1z"/>
		<path d="M161.4,284.72c-0.33-1.39-2.79-1.22-2.97,0.5c-0.75,7.16-5.5,13.11-9.95,18.45c-0.93,1.12-2.02,2.76-3.52,3.13
			c-1.51,0.37-2.87-0.92-3.71-2.02c-2.02-2.64-2.99-6.21-3.13-9.49c-0.16-3.82,0.79-7.56,2.82-10.81c1.02-1.64-1.57-3.15-2.59-1.51
			c-4.21,6.76-4.51,16.35,0.1,23.03c2.29,3.32,6.2,5.24,9.71,2.4c1.6-1.3,2.87-3.09,4.16-4.68c1.34-1.66,2.64-3.34,3.84-5.11
			c2.4-3.54,4.25-7.38,5.02-11.56c-0.22,3.28-0.43,6.57-0.65,9.85c-0.12,1.87-0.25,3.75-0.37,5.62l-0.18,2.81
			c-0.03,0.4-0.05,0.8-0.07,1.19c-0.53-0.08-1.08,0.1-1.42,0.71c-1.17,2.11,1.69,4.16,3.4,2.54c0.79-0.75,0.92-1.77,0.99-2.8
			c0.11-1.48,0.19-2.97,0.29-4.45c0.38-5.77,0.76-11.55,1.14-17.32C164.4,283.44,161.94,283.29,161.4,284.72z"/>
		<path d="M206.19,294.17c-5.33-1.16-10.69-2.23-16-3.49c-3.57-0.85-7.18-1.97-10.11-4.18c3.49-1.5,6.7-3.54,9.52-6.12
			c0.64-0.58,0.5-1.52,0-2.12c-2.62-3.15-6.33-7.1-10.9-6.14c-3.32,0.7-6.32,4.31-5,7.64c-0.52,5.51-0.23,11.07,0.84,16.5
			c-0.14,0.07-0.27,0.15-0.39,0.27c-0.53,0.52-0.63,1.62,0,2.12c0.67,0.53,1.1,1.09,1.44,1.87c0.69,1.59,3.17,0.44,2.74-1.16
			c-1.06-3.93-1.66-7.95-1.83-11.99c3.29,3.27,7.71,4.92,12.14,6.02c5.54,1.38,11.17,2.47,16.76,3.68
			C207.28,297.47,208.08,294.58,206.19,294.17z M176.45,284.75c0.01-1.38,0.07-2.76,0.18-4.15c0.3-0.38,0.4-0.9,0.12-1.44
			c0.01-0.08,0.01-0.16,0.02-0.24c0.04-0.39-0.13-0.74-0.4-1.01c0.06-1.67,2.38-3.1,3.94-2.94c2.52,0.24,4.5,2.25,6.13,4.17
			c-2.85,2.38-6.09,4.21-9.61,5.41C176.69,284.6,176.56,284.67,176.45,284.75z"/>
		<path d="M230.67,292.68c-3.62,0.6-7.25,1.21-10.87,1.81c-2.44,0.41-5.73,1.43-8.13,0.33c-1.23-0.56-1.58-1.78-1.66-3.05
			c-0.11-1.67-0.06-3.35-0.05-5.02c0.02-3.67,0.15-7.34,0.38-11c0.12-1.93-2.88-1.92-3,0c-0.26,4.1-0.39,8.21-0.38,12.32
			c0,3.3-0.32,7.34,3,9.23c2.76,1.57,6.19,0.82,9.13,0.33c2.67-0.44,5.34-0.89,8.01-1.33c0.35,0.71,1.18,1.18,2.06,0.67l2.68-1.55
			C233.38,294.52,232.27,292.41,230.67,292.68z"/>
		<path d="M800.25,361.28c-29.92-3.25-59.9-5.96-89.93-8.13c-30.02-2.17-60.08-3.81-90.16-4.91c-16.86-0.61-33.72-1.06-50.59-1.33
			c-1.93-0.03-1.93,2.97,0,3c30.1,0.49,60.18,1.52,90.24,3.09c30.06,1.57,60.09,3.68,90.07,6.33c16.8,1.48,33.59,3.14,50.36,4.96
			C802.16,364.49,802.15,361.49,800.25,361.28z"/>
		<path d="M810.57,361.18c-0.65-0.95-1.58-1.68-2.42-2.45c-1.05-0.97-2.09-1.94-3.11-2.93c-3.89-3.75-7.61-7.67-11.15-11.75
			c-4.05-4.66-7.85-9.53-11.41-14.57c-1.1-1.57-3.71-0.07-2.59,1.51c5.87,8.32,12.38,16.18,19.52,23.44
			c1.79,1.82,3.61,3.6,5.47,5.35c0.85,0.8,1.75,1.57,2.58,2.38c0.25,0.25,0.84,0.72,0.86,1.11c0.03,0.49-0.66,0.84-1.01,1.09
			c-4.45,3.32-8.92,6.6-13.39,9.91c-3.85,2.85-7.7,5.7-11.56,8.55c-0.66-0.09-1.33,0.21-1.48,1.06c0,0.01-0.01,0.02-0.01,0.04
			c-0.78,0.58-1.56,1.16-2.34,1.73c-1.09,0.81-0.87,2.87,0.76,2.8c1.8-0.08,3.41-1.11,4.14-2.7c8.53-6.31,17.08-12.6,25.59-18.94
			c0.83-0.62,1.67-1.23,2.07-2.22C811.57,363.41,811.27,362.2,810.57,361.18z"/>
		<path d="M924.12,84.38c-2.64-3.76-6.73-6.1-11.22-6.91c-5.03-0.9-10.09,0.07-14.77,1.99c-5.13,2.1-9.9,5.05-14.48,8.16
			c-4.54,3.08-8.89,6.46-12.99,10.11c-3.53,3.14-8.04,6.8-9.03,11.69c-1.02,5.01,2.17,9.15,5.61,12.38
			c4.32,4.06,8.82,7.94,13.23,11.9c2.32,2.08,4.64,4.16,6.96,6.24c1.67,1.5,4.47,3.3,5.07,5.62c0.37,1.44-0.9,2.07-2.07,2.44
			c-1.43,0.45-2.91,0.78-4.38,1.11c-3.26,0.74-6.55,1.3-9.87,1.67c-3.13,0.34-6.37,0.68-9.52,0.52c-0.99-0.05-2.37-0.22-3-1.1
			c-0.43-0.6-0.52-1.55,0.21-1.9c1.74-0.83,0.22-3.41-1.51-2.59c-1.86,0.88-2.38,3.18-1.75,5.02c0.76,2.21,2.91,3.22,5.1,3.49
			c2.81,0.34,5.78,0.01,8.58-0.24c2.96-0.26,5.92-0.66,8.84-1.2c2.81-0.52,5.74-1.04,8.44-1.99c2.22-0.78,4.13-2.39,4-4.94
			c-0.13-2.49-2.08-4.49-3.82-6.05c-2.37-2.14-4.76-4.27-7.14-6.41c-4.7-4.22-9.41-8.42-14.09-12.65
			c-3.46-3.12-7.71-7.27-5.41-12.31c1.05-2.3,2.92-4.13,4.72-5.85c2.1-2,4.28-3.93,6.52-5.78c4.44-3.66,9.16-6.99,14.08-9.97
			c5.27-3.19,11.07-6.33,17.35-6.69c5.1-0.29,10.71,1.42,13.75,5.76C922.63,87.47,925.23,85.97,924.12,84.38z"/>
		<path d="M966.77,118.1c-7.74,5.51-14.18,12.67-18.76,20.97c-1.24-5.66-1.89-11.43-1.9-17.24c0-1.24-1.68-2.06-2.56-1.06
			c-5.81,6.61-11.61,13.22-17.42,19.83c-1.47,1.67-2.91,3.35-4.4,5c-1.13,1.25-2.39,2.45-3.9,3.21c-1.33,0.67-2.93,0.8-3.9-0.54
			c-0.84-1.17-0.84-2.83-0.79-4.21c0.15-3.97,0.93-7.96,2-11.78c0.3-1.05,0.62-2.11,0.97-3.17c2.15,0.01,4.31,0.01,6.46,0.02
			c2.66,0.01,5.32,0.01,7.98,0.02c1.94,0,4.79,0.48,5.97-1.53c1.04-1.78-0.14-3.8-1.16-5.28c-1.13-1.65-2.37-3.26-3.86-4.61
			c-2.81-2.55-6.56-3.97-10.18-2.18c-3.67,1.82-5.46,6.09-6.92,9.65c-0.12,0.3-0.22,0.6-0.34,0.9c-2.49-0.01-4.98-0.01-7.47-0.02
			c-1.93,0-1.93,3,0,3l6.39,0.02c-1.09,3.33-1.89,6.75-2.38,10.22c-0.5,3.57-1.37,8.51,1.47,11.38c3.19,3.23,7.65,0.94,10.41-1.6
			c1.98-1.82,3.66-4,5.43-6.02c1.97-2.24,3.94-4.49,5.92-6.73l9.38-10.67c0.29,6.1,1.23,12.16,2.84,18.06
			c0.32,1.17,2.17,1.56,2.74,0.36c4.39-9.31,11.09-17.43,19.48-23.41C969.85,119.58,968.35,116.98,966.77,118.1z M919.46,121.59
			c1.58-2.61,4.17-4.78,7.35-3.46c2.84,1.18,5.19,4.2,6.68,6.8c0.1,0.17,0.59,0.99,0.48,1.15c-0.14,0.19-0.96,0.08-1.15,0.08
			c-1.25,0-2.5-0.01-3.74-0.01c-2.5-0.01-4.99-0.01-7.49-0.02c-1.45,0-2.91-0.01-4.36-0.01
			C917.86,124.54,918.59,123.02,919.46,121.59z"/>
		<path d="M1021.57,113.55c-6.63,9.05-14,17.55-22.01,25.41c-2.02,1.99-4.09,3.93-6.19,5.84c-0.94,0.85-1.89,1.69-2.85,2.53
			c-1.01,0.88-2.05,2.01-3.24,2.64c-2.54,1.34-2.07-3.64-2.06-4.93c0.01-3,0.15-5.99,0.42-8.98c0.6-6.63,1.9-13.17,3.78-19.55
			c0.55-1.86-2.35-2.65-2.89-0.8c-1.87,6.34-3.14,12.83-3.8,19.41c-0.33,3.3-0.5,6.61-0.51,9.92c-0.01,2.4-0.23,5.49,1.71,7.28
			c2.32,2.14,5.11,0.21,7.02-1.41c2.33-1.99,4.61-4.02,6.85-6.11c4.59-4.28,8.98-8.76,13.16-13.43c4.67-5.21,9.06-10.66,13.2-16.3
			C1025.3,113.51,1022.7,112.01,1021.57,113.55z"/>
		<path d="M1055.55,141.17c-0.29,3.45-2.97,6.22-5.99,7.62c-3.7,1.71-8.06,1.59-12.02,1.1c-1.85-0.23-3.88-0.62-5.28-1.95
			c-1.29-1.23-1.9-3-2.26-4.7c-0.66-3.17-0.46-6.52,0.35-9.64c0.1-0.4,0.22-0.8,0.34-1.2c3.59,0.13,7.18-0.16,10.72-0.94
			c4.56-1,9.82-2.66,13.33-5.89c3-2.76,4.38-8.06,0.96-11.1c-3.08-2.73-7.78-1.98-11.31-0.68c-7.19,2.64-12.86,8.49-15.76,15.52
			c-0.54-0.05-1.09-0.11-1.63-0.18c-0.81-0.11-1.6,0.2-1.85,1.05c-0.2,0.7,0.25,1.74,1.05,1.85c0.48,0.06,0.95,0.11,1.43,0.16
			c-2,7.1-1.76,17.58,6.36,20.05c2.56,0.78,5.46,0.95,8.12,0.95c2.75,0,5.54-0.39,8.09-1.43c4.43-1.82,7.92-5.7,8.33-10.58
			C1058.72,139.24,1055.72,139.25,1055.55,141.17z M1041.8,118.31c2.69-1.58,6.07-2.98,9.26-2.65c1.46,0.15,2.92,0.79,3.46,2.25
			c0.59,1.57-0.04,3.44-1.06,4.68c-1.37,1.68-3.42,2.7-5.36,3.57c-2.19,0.97-4.49,1.71-6.82,2.26c-3.09,0.73-6.27,1.07-9.44,1.04
			C1033.95,124.86,1037.44,120.87,1041.8,118.31z"/>
		<path d="M1109.01,116.07c-7.82-3.26-16.7-2.39-24.32,1c-7.58,3.37-13.63,9.44-18.11,16.33c2.11-9.12,3.68-18.36,4.7-27.67
			c0.21-1.92-2.79-1.9-3,0c-1.51,13.83-4.3,27.5-8.27,40.83c-0.56,1.89,2.21,2.56,2.89,0.8c5.5-14.27,16.21-28.51,32.55-30.2
			c3.12-0.32,6.22-0.12,9.22,0.64c0.22,0.44,0.63,0.79,1.23,0.87c0.9,0.12,1.8,0.23,2.71,0.35c0.74,0.09,1.38-0.64,1.47-1.3
			C1110.2,116.92,1109.71,116.37,1109.01,116.07z"/>
		<path d="M1051.86,255.37c-6.64-8.54-17.66-11.45-27.93-12.6c-5.87-0.66-11.78-0.73-17.68-0.87c-7.46-0.18-14.92-0.36-22.38-0.54
			c-15-0.36-30-0.72-45-1.09c-6.98-0.17-13.98-0.49-20.96-0.36c-6.23,0.12-12.57,0.68-18.51,2.64c-2.86,0.94-5.61,2.21-8.16,3.82
			c-1.63,1.03-0.12,3.63,1.51,2.59c10.35-6.56,23.13-6.25,34.93-5.96c14.09,0.34,28.18,0.68,42.26,1.02
			c14.04,0.34,28.08,0.66,42.12,1.02c9.83,0.25,20.47,0.81,29.34,5.52c4.24,2.25,8.59,5.84,10.39,10.44
			c1.04,2.68,0.53,5.18-1.75,6.98c-2.24,1.77-5.17,2.8-7.78,3.87c-11.58,4.74-23.8,7.8-36.16,9.65c-25.2,3.76-50.86,2.58-76.2,1.14
			c-12.7-0.72-25.54-1.51-37.86-4.91c-2.99-0.82-5.94-1.8-8.81-2.96c-1.36-0.55-2.71-1.12-4.02-1.78c-0.87-0.44-2.35-1.15-2.47-2.28
			c-0.13-1.22,1.46-2.25,2.31-2.83c1.3-0.89,2.64-1.7,4.03-2.44c2.66-1.42,5.47-2.54,8.38-3.35c2.91-0.82,5.87-1.31,8.89-1.49
			c1.92-0.11,1.93-3.11,0-3c-6.56,0.39-12.97,2.16-18.78,5.25c-2.41,1.28-5.47,2.83-7.02,5.18c-1.69,2.58-0.4,5.28,1.93,6.85
			c2.49,1.68,5.63,2.72,8.43,3.73c3.19,1.16,6.46,2.11,9.76,2.89c6.51,1.54,13.15,2.44,19.8,3.06c13.37,1.25,26.85,1.84,40.27,2.23
			c13.58,0.4,27.2,0.3,40.74-1c13.18-1.26,26.29-3.64,38.86-7.82c3.22-1.07,6.4-2.25,9.53-3.56c2.63-1.1,5.41-2.14,7.7-3.85
			c2.31-1.72,3.91-4.21,3.77-7.19C1055.21,260.37,1053.66,257.69,1051.86,255.37z"/>
		<path d="M874.63,284.54c-3.87,19.73-6.8,39.63-9.01,59.61c-2.22,20.06-3.7,40.19-4.71,60.34c-1.01,20.19-1.55,40.41-1.86,60.62
			c-0.31,20.11-0.47,40.23-0.5,60.35c-0.04,19.3,0.42,38.85,5.05,57.69c0.59,2.4,1.25,4.78,1.97,7.14c0.41,1.32,1.99,1.37,2.74,0.36
			l6.2-8.38c1.15-1.55-1.45-3.05-2.59-1.51c-1.44,1.94-2.87,3.88-4.31,5.82c-4.96-17.71-5.94-36.2-6.05-54.53
			c-0.13-19.83,0.13-39.67,0.39-59.5c0.26-20.12,0.71-40.24,1.6-60.34c0.88-19.97,2.2-39.92,4.2-59.8
			c2.01-20.03,4.73-39.99,8.38-59.78c0.45-2.43,0.91-4.86,1.39-7.29C877.89,283.46,875,282.65,874.63,284.54z"/>
		<path d="M1053.74,282.24c-3.31,19.06-6.74,38.1-10.28,57.12c-3.55,19.02-7.22,38.02-11,56.99c-3.77,18.88-7.66,37.74-11.66,56.57
			c-4.02,18.92-8.17,37.82-12.43,56.7c-2.12,9.38-4.41,18.73-6.3,28.16c-1.84,9.16-3.22,18.5-3.02,27.86
			c-0.5,0.31-0.85,0.88-0.7,1.61l0.74,3.61c-5.14,3.62-10.32,7.16-15.8,10.23c-9.58,5.37-20.07,8.93-30.94,10.56
			c-20.72,3.11-42.06-1.27-59.93-12.17c-9.44-5.76-17.86-13.25-24.59-22.04c-1.16-1.51-3.76-0.02-2.59,1.51
			c12.43,16.24,30.12,28.22,49.89,33.55c21.48,5.79,44.93,3.43,64.91-6.32c7.01-3.42,13.48-7.76,19.85-12.23
			c0.8,0.92,2.82,0.46,2.66-0.98c-0.03-0.28-0.05-0.56-0.08-0.84c3.54-2.51,7.07-5.03,10.67-7.43c1.33-0.88,0.52-3.38-1.16-2.74
			c-1.18,0.45-2.36,0.9-3.55,1.35c-0.77,0.29-1.07,1.01-1,1.66c-1.76,1.22-3.5,2.45-5.25,3.69c-1.01-17.62,3.81-35.04,7.68-52.09
			c4.27-18.77,8.42-37.57,12.45-56.4c4.03-18.82,7.95-37.68,11.74-56.55c3.8-18.87,7.47-37.77,11.03-56.69
			c3.56-18.92,7-37.86,10.32-56.83c0.41-2.36,0.82-4.72,1.23-7.08C1056.96,281.15,1054.07,280.33,1053.74,282.24z"/>
	</g>
	<g id="response1" class="st0">
		<path class="st1" d="M826.06,431.59c-0.98-7.39-5.09-13.21-11.54-15.47c-3.3-1.16-6.81-1.42-10.23-1.78
			c-1.74-0.18-3.49-0.37-5.22-0.72c-1.8-0.36-3.53-1.14-5.33-1.42c-1.15-0.18-2.16,0.05-3.08,0.53c-3.01-0.93-6.26-0.96-9.29-0.05
			c-6.86,2.05-10.63,8.53-12.15,15.93c-0.33,1.6-0.61,3.24-0.82,4.92c-13.46-0.37-26.92-0.36-40.37,0.06
			c-24.35,0.76-48.67,2.82-72.85,6.17c-13.17,1.82-26.3,4.03-39.36,6.61c5.49-5.96,11.15-11.71,17.01-17.22
			c1.49-1.4-0.66-3.78-2.14-2.39c-8.91,8.37-17.4,17.27-25.44,26.66c-0.53,0.62-0.64,1.79,0,2.39
			c12.38,11.69,26.85,20.42,42.41,25.55c1.87,0.62,2.67-2.64,0.81-3.26c-14.56-4.8-28.19-12.85-39.91-23.61
			c1.65-1.91,3.32-3.82,5.01-5.69c0.27,0.7,0.9,1.24,1.75,1.08c23.93-4.77,48.06-8.26,72.29-10.45c24.2-2.19,48.49-3.1,72.77-2.71
			c2.57,0.04,5.14,0.11,7.71,0.18c-0.38,5.91,0.27,11.93,2.95,17.04c3.4,6.48,9.44,10.55,15.67,12.9c3.87,1.46,8.05,2.43,12.23,2.64
			c0.24,0.1,0.5,0.12,0.77,0.04c2.64,0.08,5.28-0.16,7.82-0.79c1.82-0.45,3.52-1.13,5.08-2.03c0.33,0.08,0.69,0.05,1.04-0.15
			c0.74-0.42,1.34-1.06,1.78-1.82c3.29-2.73,5.83-6.51,7.54-10.98C825.58,446.88,827.05,439.03,826.06,431.59z M779.96,416.8
			c2.36-1.24,5.04-1.67,7.62-1.34c-1.02,1.28-1.92,2.73-2.77,3.96c-2.47,3.56-4.71,7.31-6.7,11.23c-0.52,1.03-1.02,2.07-1.51,3.13
			c-1.72-0.07-3.45-0.13-5.17-0.19C772.21,426.93,774.22,419.81,779.96,416.8z M771.13,436.96c1.35,0.04,2.71,0.11,4.06,0.16
			c-0.32,1.56,1.28,2.72,2.51,1.6c0.52-0.48,1.04-0.97,1.56-1.45c0.32,0.01,0.63,0.02,0.95,0.04c0.01,0.36,0.12,0.7,0.29,0.99
			c-2.71,3.26-5.53,6.41-8.45,9.43c-0.01,0.01-0.02,0.02-0.03,0.04C771.11,444.36,770.88,440.68,771.13,436.96z M777.14,457.02
			c-1.86-1.93-3.23-4.13-4.2-6.52c0.41,0.07,0.85-0.03,1.25-0.39c3.46-3.17,6.93-6.33,10.39-9.5c-1.94,2.77-4.01,5.42-6.21,7.95
			c-1.15,1.32,0.42,3.85,1.84,2.65c5.15-4.34,10.3-8.69,15.44-13.03c0.03,0,0.06,0,0.09,0.01c-3.39,4.54-7.08,8.8-11.05,12.73
			c-1.47,1.45,0.67,3.77,2.14,2.39c3.74-3.52,7.48-7.03,11.22-10.55c-2.86,3.71-5.91,7.23-9.14,10.56
			c-1.24,1.28,0.41,3.76,1.84,2.65c5.49-4.25,10.98-8.5,16.46-12.75c-3.75,5.48-8.05,10.47-12.85,14.86
			c-1.32,1.21,0.43,3.77,1.84,2.65c5.53-4.4,11.07-8.8,16.6-13.21c-3.95,6.77-8.98,12.71-14.01,18.53c-1.87-0.13-3.72-0.42-5.49-0.8
			C787.48,464,781.54,461.58,777.14,457.02z M790.17,437.83c0.29,0.02,0.58,0.03,0.86,0.05c-0.64,0.54-1.28,1.08-1.92,1.62
			C789.47,438.94,789.83,438.39,790.17,437.83z M804.39,465.91c2.7-2.13,5.41-4.26,8.11-6.4c0.02,0.25,0.1,0.5,0.27,0.76
			c0.18,0.27,0.29,0.56,0.36,0.86c-0.34,0.71-0.7,1.4-1.07,2.1c-0.09,0.06-0.17,0.12-0.26,0.17
			C809.51,464.79,806.98,465.57,804.39,465.91z M822.04,446.33c-0.7,2.89-1.63,5.8-2.9,8.46c0.17-0.45,0.34-0.9,0.5-1.36
			c0.47-1.34-1.18-2.73-2.22-1.91l-7.39,5.83c3.39-4.55,6.45-9.38,8.75-14.75c0.59-1.37-0.72-3.39-2.07-2.31
			c-2.69,2.14-5.38,4.28-8.07,6.42c2.11-2.95,4.05-6.05,5.82-9.28c0.76-1.38-0.8-3.29-2.07-2.31l-11.11,8.6
			c2.71-3.6,5.25-7.36,7.61-11.26c1.02-1.69-1.14-3.21-2.38-2.05c-1.46,1.37-2.91,2.74-4.37,4.11c0.9-1.37,1.78-2.75,2.63-4.17
			c0.81-1.35-0.85-3.34-2.07-2.31l-7.94,6.7c-0.88-0.06-1.76-0.13-2.64-0.18c0.37-0.65,0.74-1.3,1.09-1.96
			c0.94-1.74-1.11-3.2-2.38-2.05c-0.38,0.35-0.77,0.7-1.15,1.06c1.68-2.32,3.32-4.69,4.89-7.11c0.5-0.76,0.22-1.59-0.33-2.09
			c0.11-0.16,0.22-0.31,0.34-0.47c1.19-1.66-0.71-3.95-2.14-2.39c-3.49,3.8-7.08,7.46-10.76,11.03c2.41-4.53,5.16-8.84,8.25-12.83
			c0.39-0.5,0.76-0.96,1.14-1.34c1.76,0.76,3.37,1.92,4.68,3.49c1.33,1.6,3.47-0.8,2.14-2.39c-0.29-0.35-0.6-0.68-0.92-1
			c0.62,0.18,1.25,0.35,1.89,0.47c3.09,0.57,6.22,0.75,9.33,1.16c5.82,0.76,11.46,3.03,13.84,9.51
			C824.16,433.52,823.49,440.37,822.04,446.33z"/>
		<path class="st1" d="M625.26,553.2c-0.38,0.5-0.55-2.46-0.55-2.77c0-1.77,0.01-3.54,0.01-5.31c0.01-3.63,0.02-7.26,0.02-10.9
			c0.02-7.26,0.03-14.53,0.05-21.79c0-2.17-3.02-2.18-3.03,0c-0.02,8.94-0.04,17.88-0.06,26.82c0,2.24-0.01,4.47-0.01,6.71
			c0,2.08-0.14,4.22,0.03,6.29c0.12,1.56,0.62,3.1,1.9,3.91c1.21,0.78,2.85,0.65,3.78-0.57
			C628.65,553.93,626.52,551.53,625.26,553.2z"/>
		<path class="st1" d="M654.49,557.11c-5.25-7.9-6.28-17.58-5.94-27.22c1.18-0.95,2.32-1.97,3.39-3.09
			c1.43-1.48-0.72-3.87-2.14-2.39c-0.33,0.34-0.67,0.67-1.01,0.99c0.24-3.22,0.57-6.41,0.91-9.49c0.24-2.15-2.79-2.13-3.03,0
			c-0.44,3.93-0.85,8.02-1.06,12.13c-5.35,3.9-11.7,5.94-18.15,5.75c-1.95-0.06-1.95,3.32,0,3.38c6.32,0.18,12.57-1.64,18.01-5.1
			c-0.12,9.5,1.21,18.94,6.38,26.73C653.02,560.54,655.65,558.86,654.49,557.11z"/>
		<path class="st1" d="M680.42,509.49c-8.07,1.88-16.09,4.07-24.02,6.57c-1.87,0.59-1.08,3.85,0.81,3.26
			c3.74-1.18,7.5-2.28,11.28-3.32c-1.74,9.49-1.78,19.28-0.05,28.78c0.44,2.43,1,4.84,1.67,7.2c0.56,1.95,1.13,3.99,2.18,5.69
			c1.92,3.11,6.1,4.88,8.76,1.75c1.34-1.58-0.8-3.97-2.14-2.39c-0.89,1.05-2.35,0.71-3.26-0.16c-1.14-1.08-1.7-2.8-2.18-4.33
			c-1.18-3.8-2.04-7.72-2.59-11.69c-1.13-8.07-0.9-16.38,0.61-24.36c0.09-0.49,0-0.92-0.19-1.25c1.36-0.36,2.72-0.72,4.08-1.06
			c-0.37,1.31,1.34,2.79,2.6,1.66l3.94-3.52C683.17,511.17,681.75,509.18,680.42,509.49z"/>
		<path class="st1" d="M731.26,546.97c-2.68-10.46-4.6-21.15-5.69-31.96c-0.15-1.48-2.09-2.52-2.82-0.85
			c-2.04,4.66-4.07,9.32-6.11,13.98c-0.79,1.8-1.5,4.3-2.95,5.61c-1.56,1.41-2-1.2-2.19-2.47c-0.4-2.53-0.72-5.08-1.08-7.63
			c-0.34-2.42-0.47-5.07-1.07-7.42c-0.35-1.36-1.48-2.65-2.71-2.39c0.01-0.04,0.01-0.07,0.02-0.11c0.33-2.13-2.59-3.04-2.92-0.9
			c-1.11,7.23-1.37,14.58-0.66,21.87c0.41,4.2,0.94,14.71,6.92,13.35c1.91-0.43,1.1-3.69-0.81-3.26c-1.51,0.34-2.13-3.37-2.31-4.43
			c-0.51-2.93-0.85-5.9-1.03-8.88c-0.27-4.44-0.19-8.91,0.25-13.33c0.07,0.03,0.14,0.08,0.22,0.1c0.11,0.03,0.21,0.04,0.31,0.04
			c0.07,0.52,0.15,1.04,0.22,1.55c0.16,1.1,0.31,2.21,0.47,3.31c0.34,2.39,0.67,4.78,1.01,7.17c0.44,3.12,1.3,7.87,5.14,7.17
			c3.49-0.64,4.92-5.63,6.24-8.67c1.17-2.68,2.34-5.36,3.52-8.04c1.14,8.99,2.8,17.89,5.02,26.63c-0.08,0.55,0.03,1.16,0.42,1.58
			c0.23,0.89,0.46,1.78,0.7,2.67c0.37,1.33,2.13,1.73,2.77,0.4C733,550.24,732.55,548.2,731.26,546.97z"/>
		<path class="st1" d="M764.37,536.8c-3.81-0.26-7.23,1.7-10.43,3.78c-3.01,1.96-6.21,4.2-9.84,4.07
			c-7.94-0.28-5.61-12.27-4.85-17.73c0.76-5.46,1.53-10.92,2.29-16.39c0.3-2.13-2.62-3.04-2.92-0.9
			c-0.74,5.28-1.48,10.56-2.21,15.84c-0.59,4.21-1.46,8.56-1,12.83c0.4,3.76,1.99,7.31,5.24,8.88c3.59,1.74,7.66,0.5,11.01-1.31
			c4.1-2.21,7.88-6.03,12.71-5.7C766.32,540.31,766.31,536.93,764.37,536.8z"/>
		<g class="st2">
			<path class="st3" d="M782.03,543.85c-0.71-0.42-1.67-0.22-2.07,0.61c-0.69,1.41-1.03,3.08-1.41,4.62
				c-0.4,1.63-0.77,3.27-1.1,4.92c-0.05,0.25-0.11,0.51-0.15,0.77c0.01-0.02,0.03-0.06,0.04-0.09c-0.01,0.03-0.01,0.06-0.02,0.09
				c-0.01,0.06-0.03,0.1-0.04,0.12c-0.08,0.6-0.06,1.19,0.39,1.66c0.47,0.49,1.27,0.68,1.84,0.26c0.8-0.59,0.9-1.86,1.11-2.82
				c0.03-0.14,0.04-0.29,0.04-0.44c0.06-0.25,0.11-0.51,0.16-0.76c0.38-1.7,0.77-3.4,1.24-5.06c0.11-0.38,0.22-0.75,0.34-1.12
				c0.03-0.1,0.09-0.24,0.13-0.32c0.02-0.03,0.03-0.07,0.05-0.1C782.95,545.39,782.77,544.29,782.03,543.85z"/>
			<path class="st3" d="M777.28,554.88c0.01-0.04,0.01-0.08,0.02-0.12C777.25,554.88,777.26,554.92,777.28,554.88z"/>
		</g>
		<path class="st1" d="M664.53,617.33c-7.17,6.43-18.32,9.24-25.38,1.03c-7.47-8.7-0.69-21.09,5.42-28.09
			c3.37-3.86,8.7-8.35,13.79-5.94c0.76,0.36,1.61,0.25,2.07-0.61c0.38-0.71,0.21-1.95-0.54-2.31c-5.41-2.56-10.74,0.01-15.01,3.94
			c-4.48,4.12-8.34,9.89-10.55,15.88c-2.09,5.67-2.19,12.19,1.08,17.34c2.98,4.68,7.79,7.62,12.88,8.21
			c6.72,0.78,13.24-2.45,18.38-7.06C668.19,618.35,666.04,615.98,664.53,617.33z"/>
		<path class="st1" d="M703.04,576.24c-3.41-3.01-8.06-2.42-11.44,0.38c-3.97,3.29-5.29,8.89-5.99,14.09
			c-0.61,4.51-1.29,9.51,0.34,13.86c0.78,2.09,2.13,3.82,3.98,4.79c2.15,1.11,5.21,0.86,6.92,2.84c1.08,1.26,0.54,2.23-0.48,3.25
			c-1.11,1.11-2.28,2.15-3.48,3.13c-2.45,2.01-5.04,3.78-7.74,5.33c-1.73,1-0.2,3.91,1.53,2.92c4.32-2.48,8.81-5.57,12.26-9.43
			c1.59-1.79,2.12-4.21,0.88-6.44c-1.25-2.25-3.45-3.15-5.65-3.71c-2.06-0.52-4.02-1.05-5.12-3.24c-0.9-1.78-1.06-3.94-1.06-5.95
			c0-2.24,0.27-4.48,0.57-6.69c0.35-2.59,0.8-5.25,1.8-7.64c0.99-2.39,2.48-4.39,4.68-5.46c1.84-0.9,4.2-1.11,5.87,0.36
			C702.41,579.96,704.56,577.59,703.04,576.24z"/>
		<path class="st1" d="M730.74,618.94c-2.19-2.31-5.07-3.18-7.96-3.77c-2.64-0.54-5.88-0.78-8-2.84c-2.9-2.81-1.68-7.54-0.51-10.97
			c1.36-3.99,2.97-7.95,4.81-11.7c2.05-4.19,4.56-8.02,7.95-10.98c1.53-1.34-0.62-3.71-2.14-2.39c-6.49,5.67-9.91,14.42-13,22.69
			c-1.54,4.11-2.92,9.05-0.95,13.29c1.5,3.23,4.57,4.7,7.6,5.44c2.98,0.73,6.55,0.85,9.15,2.82c-1.94,3.44-4.4,6.48-7.32,8.94
			c-1.54,1.29-0.03,4.23,1.53,2.92c3.69-3.11,6.77-6.92,9.08-11.4C731.31,620.36,731.23,619.46,730.74,618.94z"/>
		<path class="st1" d="M749.66,621.15c-1.95,0-1.95,3.38,0,3.38C751.61,624.53,751.62,621.15,749.66,621.15z"/>
		<path class="st1" d="M838.63,562.78c-12.23,3.04-24.46,6.08-36.69,9.13c-1.9,0.47-1.1,3.73,0.81,3.26
			c12.23-3.04,24.46-6.08,36.69-9.13C841.34,565.57,840.53,562.31,838.63,562.78z"/>
		<path class="st1" d="M820.73,572.33c-0.26,9.74-0.53,19.49-0.79,29.23c-0.11,3.99,0.19,8.46-1.12,12.25
			c-1.43,4.1-5.26,5.35-8.74,6.4c-4.59,1.37-9.3,2.13-14.05,2.31c-1.94,0.07-1.95,3.45,0,3.38c4.53-0.17,9.05-0.84,13.46-2.04
			c3.77-1.03,8.08-2.23,10.6-5.8c2.3-3.27,2.62-7.56,2.75-11.57c0.16-5.3,0.29-10.6,0.43-15.89c0.16-6.09,0.33-12.18,0.49-18.27
			C823.82,570.16,820.79,570.16,820.73,572.33z"/>
		<path class="st1" d="M754.93,618.52c-0.85-0.26-1.57,0.32-1.86,1.18l-3.98,11.58c-0.57,1.67-1.08,3.4-1.76,5.03
			c-0.47,1.12-1.05,2.36-2.19,2.7c-1.88,0.56-1.08,3.82,0.81,3.26c3.41-1.03,4.43-5.33,5.54-8.57c1.5-4.37,3-8.74,4.5-13.1
			C756.28,619.75,755.66,618.75,754.93,618.52z"/>
		<path class="st1" d="M864.52,612.23c-4.32-5.98-8.64-11.97-12.96-17.95c-0.72-1-2.28-0.4-2.53,0.75
			c-1.17,5.24-2.11,10.65-3.64,15.78c-1.1,3.71-4.1,8.97-8.34,7.52c-3.29-1.12-3.59-5.81-3.49-9c0.12-3.83,0.51-8.79,2.69-11.92
			c1.07-1.53,2.54-2.28,4.27-1.92c1.34,0.28,2.59,1.16,2.49,2.81c-0.13,2.17,2.9,2.16,3.03,0c0.29-4.86-4.94-7.2-8.55-5.93
			c-4.83,1.7-6.03,8.19-6.63,13.05c-0.57,4.62-0.87,10.52,2.32,14.13c3.69,4.18,9.56,2.16,12.48-2.02c1.95-2.79,2.84-6.23,3.6-9.6
			c0.66-2.92,1.31-5.84,1.96-8.76c3.72,5.15,7.44,10.3,11.16,15.45C863.6,616.32,865.73,613.91,864.52,612.23z"/>
		<path class="st1" d="M892.22,588.29c-0.9-0.01-1.42,0.79-1.51,1.69c-0.99,9.28-5.93,17.76-12.95,22.77
			c-1.82-5.4-3.63-10.81-5.45-16.21c-0.68-2.02-3.61-1.14-2.92,0.9c2.04,6.08,4.09,12.17,6.13,18.25c0.35,1.03,1.31,1.57,2.22,1.01
			c8.84-5.44,14.81-15.57,15.99-26.71C893.83,589.06,892.97,588.3,892.22,588.29z"/>
		<path class="st1" d="M928.72,610.87c-6.16-0.37-9.59-7.96-11.91-13.39c-0.71-1.65-2.71-0.65-2.82,0.85
			c-0.34,4.35-0.67,9.32-3.16,12.91c-1.87,2.69-5.73,4.76-8.59,2.74c-2.66-1.88-2.64-5.81-2.1-8.88c0.33-1.84,0.85-3.64,1.47-5.39
			c0.58-1.63,1.27-3.71,2.56-4.82c3.19-2.73,4.69,4.44,4.88,6.61c0.18,2.14,3.21,2.17,3.03,0c-0.34-4.03-1.82-10.23-6.29-10.51
			c-4.74-0.3-6.78,6.32-7.91,10.38c-1.23,4.41-1.9,9.96,0.99,13.77c3,3.95,8.19,3.64,11.76,0.86c3.66-2.85,5.1-7.39,5.8-12.08
			c2.76,5.23,6.56,9.98,12.29,10.32C930.66,614.36,930.66,610.98,928.72,610.87z"/>
		<path class="st1" d="M952.56,575.1c-2.58-1.03-4.94,0.64-6.48,2.88c-1.85,2.7-2.64,6.13-3.36,9.38
			c-1.58,7.12-2.07,14.52-1.49,21.82c-1.81,0.71-3.77,0.43-5.43-0.72c-1.66-1.15-3.18,1.77-1.53,2.92c2.85,1.98,6.36,2.05,9.31,0.32
			c0.43-0.25,0.8-0.9,0.75-1.46c-0.61-6.48-0.39-13.03,0.78-19.42c0.53-2.88,1.1-6,2.22-8.68c0.76-1.82,2.28-4.63,4.41-3.78
			C953.59,579.09,954.38,575.83,952.56,575.1z"/>
		<path class="st1" d="M1003.94,576.98c-7.93,5.03-13.64,13.74-15.8,23.52c-2.45-11.9-2.53-24.28-1.15-36.42
			c0.24-2.15-2.79-2.13-3.03,0c-1.36,11.92-1.29,24.14,0.97,35.89c-0.51-0.31-1.16-0.31-1.69,0.31c-2.21,2.57-4.67,5.48-7.9,6.31
			c-2.54,0.66-4.94-0.56-6.51-2.8c-1.52-2.17-2.29-5.11-1.99-7.85c0.34-3.11,2.18-5.85,4.32-7.76c2.72-2.42,6.15-3.71,9.57-4.23
			c0.82-0.12,1.25-1.28,1.06-2.08c-0.23-0.98-1.06-1.3-1.86-1.18c-6.82,1.03-14.75,5.89-15.99,14.16
			c-1.02,6.86,3.14,15.41,10.03,15.3c4.71-0.08,8.36-3.93,11.42-7.49c0.03-0.04,0.06-0.08,0.08-0.12c0.5,2.26,1.08,4.51,1.76,6.73
			c0.54,1.76,2.96,1.52,2.97-0.45c0.1-11.82,6.07-23.09,15.28-28.93C1007.16,578.82,1005.63,575.9,1003.94,576.98z"/>
		<path class="st1" d="M1022.61,553.43c-0.71-0.82-1.68-1.42-2.69-1.64c-0.5-0.11-1.02-0.17-1.53-0.11
			c-0.31,0.04-0.64,0.08-0.94,0.17c-0.31,0.09-0.61,0.24-0.91,0.39c-0.32,0.16-0.61,0.65-0.7,1.01c-0.1,0.4-0.05,0.94,0.15,1.3
			c0.21,0.36,0.52,0.68,0.91,0.78c0.13,0.02,0.27,0.04,0.4,0.06c0.16,0,0.31-0.04,0.46-0.09c0.23-0.11,0.48-0.18,0.72-0.24
			c0.21-0.02,0.42-0.02,0.63,0c0.19,0.04,0.39,0.1,0.57,0.17c0.19,0.1,0.38,0.22,0.55,0.36c0.08,0.07,0.15,0.14,0.23,0.23
			c0.55,0.64,1.6,0.66,2.14,0C1023.17,555.13,1023.2,554.11,1022.61,553.43z"/>
		<path class="st1" d="M1013.89,586.3c0.19-0.68,0.45-1.32,0.75-1.95c0.66-1.38,1.46-2.65,2.27-3.93c0.47-0.75,0.12-1.88-0.54-2.31
			c-0.76-0.49-1.6-0.14-2.07,0.61c-1.86,2.93-3.81,6.19-3.79,9.92c0.02,3.31,1.51,6.37,4.29,7.67c0.75,0.35,1.67-0.38,1.86-1.18
			c0.24-0.97-0.3-1.72-1.06-2.08c-0.67-0.31-1.23-1.08-1.6-1.94c-0.38-0.9-0.51-1.98-0.45-3.07
			C1013.58,587.55,1013.72,586.9,1013.89,586.3z"/>
		<path class="st1" d="M1075.8,572.34c-1.08-3.23-3.81-5.27-6.81-5.77c-7.16-1.21-12.37,5.77-15.58,11.97
			c-3.57,6.91-5.45,14.7-6.39,22.56c-0.45,3.73-0.68,7.49-0.8,11.24c-0.12-5.19-0.24-10.39-0.35-15.58
			c-0.26-11.67-0.53-23.33-0.79-35c-0.05-2.17-3.08-2.18-3.03,0c0.43,18.89,0.59,37.82,1.29,56.7c0.15,4.05,0.71,8.26,3.38,11.26
			c0.91,1.02,2.62,0.28,2.59-1.19c-0.35-14.02-0.61-28.68,4-41.97c1.12-3.24,2.59-6.35,4.35-9.22c1.68-2.73,3.79-5.44,6.56-6.8
			c2.22-1.09,4.95-1.06,7,0.51c2.53,1.94,2.33,5.42,1.03,8.15c-1.69,3.54-4.67,6.31-7.59,8.55c-3.03,2.33-6.34,4.12-9.86,5.35
			c-1.85,0.65-1.06,3.91,0.81,3.26c6.79-2.38,13.73-6.87,18.04-13.33C1075.64,580.03,1077.04,576.03,1075.8,572.34z"/>
		<path class="st1" d="M1095.66,585c-0.12-0.41-0.35-0.8-0.7-1.01c-0.35-0.21-0.78-0.31-1.17-0.17l-3.17,1.15
			c-0.37,0.13-0.7,0.39-0.9,0.78c-0.19,0.36-0.27,0.9-0.15,1.3c0.12,0.41,0.35,0.8,0.7,1.01c0.35,0.21,0.78,0.31,1.17,0.17
			l3.17-1.15c0.37-0.13,0.7-0.39,0.91-0.78C1095.7,585.94,1095.78,585.4,1095.66,585z"/>
		<path class="st1" d="M1109.22,582.25c-0.06-0.21-0.17-0.39-0.31-0.54l-0.31-0.26c-0.24-0.15-0.49-0.23-0.76-0.23
			c-0.13,0.02-0.27,0.04-0.4,0.06c-0.26,0.08-0.48,0.22-0.67,0.43l-1.05,1.17c-0.15,0.15-0.25,0.33-0.31,0.54
			c-0.09,0.2-0.14,0.42-0.13,0.65c-0.01,0.23,0.04,0.45,0.13,0.65c0.06,0.21,0.17,0.39,0.31,0.54l0.31,0.26
			c0.24,0.15,0.49,0.23,0.76,0.23c0.13-0.02,0.27-0.04,0.4-0.06c0.26-0.08,0.48-0.22,0.67-0.43c0.35-0.39,0.7-0.78,1.05-1.17
			c0.15-0.15,0.25-0.33,0.31-0.54c0.09-0.2,0.14-0.42,0.13-0.65C1109.36,582.67,1109.32,582.45,1109.22,582.25z"/>
		<path class="st1" d="M1123.64,577.69c-1.95,0-1.95,3.38,0,3.38C1125.59,581.06,1125.59,577.69,1123.64,577.69z"/>
		<path class="st1" d="M882.4,639.4c-7.05,0.06-13.29,4.46-17.46,10.6c-1.97,2.9-3.38,6.14-4.32,9.54
			c-5.63-0.37-11.2-1.8-16.38-4.25c-0.76-0.36-1.61-0.25-2.07,0.61c-0.38,0.71-0.21,1.95,0.54,2.31c5.5,2.6,11.28,4.14,17.16,4.6
			c-0.74,3.94-0.91,8.04-0.64,12.07c0.31,4.67,1.15,9.27,2.28,13.78c-0.28-0.07-0.56-0.13-0.83-0.2c-1.9-0.46-2.71,2.8-0.81,3.26
			c1.13,0.27,2.27,0.55,3.4,0.82c1.08,0.26,2.22-0.78,1.86-2.08c-2.33-8.45-3.95-17.56-2.44-26.38c0.06-0.38,0.16-0.75,0.24-1.13
			c2.77,0.04,5.54-0.16,8.32-0.6c0.82-0.13,1.25-1.28,1.06-2.08c-0.23-0.97-1.06-1.31-1.86-1.18c-2.2,0.35-4.43,0.53-6.66,0.55
			c1.67-5.32,4.63-10.11,8.86-13.32c2.91-2.2,6.23-3.51,9.76-3.54C884.35,642.76,884.36,639.38,882.4,639.4z"/>
		<path class="st1" d="M890.57,654.2c-1.4-0.79-2.81-1.57-4.21-2.36c-0.36-0.2-0.76-0.29-1.17-0.17c-0.35,0.11-0.73,0.41-0.9,0.78
			c-0.36,0.77-0.21,1.89,0.54,2.31c1.4,0.79,2.81,1.57,4.21,2.36c0.36,0.2,0.76,0.29,1.17,0.17c0.35-0.11,0.73-0.41,0.91-0.78
			C891.47,655.75,891.32,654.63,890.57,654.2z"/>
		<path class="st1" d="M894.81,691.94c-2.28-7.34-2.78-15.21-1.36-22.82c0.4-2.12-2.52-3.03-2.92-0.9
			c-1.54,8.18-1.1,16.71,1.36,24.62C892.52,694.88,895.45,694,894.81,691.94z"/>
		<path class="st1" d="M954.4,658.32c-3.5-0.96-7.62-0.09-11.08,0.77c-6.16,1.52-13.47,4.62-16.52,11.3
			c-0.06,0.13-0.11,0.27-0.16,0.4c-2.56-9.01-3.75-18.48-3.49-27.97c0.06-2.17-2.97-2.17-3.03,0c-0.33,11.76,1.53,23.5,5.36,34.42
			c0.14,2.83,1.13,5.5,2.98,7.46c0.22,0.5,0.44,0.99,0.68,1.49c0.47,1,1.41,1.01,2.07,0.53c0.14,0.07,0.26,0.14,0.4,0.21
			c3.48,1.53,7.52,1.35,11.17,0.96c4.38-0.47,8.67-1.58,12.77-3.35c1.8-0.77,1.02-4.04-0.81-3.26c-5.72,2.46-12.02,3.87-18.17,3.39
			c-1.93-0.15-4.03-0.64-5.61-1.93c-0.92-2.05-1.76-4.15-2.51-6.27c0.02-0.8,0.12-1.61,0.3-2.37c1.38-5.81,6.81-8.88,11.55-10.59
			c2.98-1.08,6.07-1.79,9.19-2.05c2.13-0.18,6.46-0.48,6.85,2.87c0.17,1.42-1.13,2.23-2.08,2.81c-1.5,0.92-3.04,1.75-4.56,2.62
			c-3.36,1.92-6.72,3.84-10.08,5.75c-1.74,0.99-0.2,3.91,1.53,2.92c3.65-2.08,7.3-4.17,10.95-6.25c2.58-1.47,6.52-2.92,7.18-6.55
			C959.92,662.09,957.29,659.11,954.4,658.32z"/>
		<path class="st1" d="M985.64,674.01h-5.27c-0.79,0-1.55,0.78-1.51,1.69c0.04,0.91,0.67,1.69,1.51,1.69h5.27
			c0.79,0,1.55-0.78,1.51-1.69C987.11,674.78,986.49,674.01,985.64,674.01z"/>
		<path class="st1" d="M1008.81,670.48h-3.16c-0.39,0-0.8,0.19-1.07,0.49c-0.26,0.29-0.46,0.77-0.44,1.19
			c0.04,0.91,0.67,1.69,1.51,1.69h3.16c0.39,0,0.8-0.19,1.07-0.49c0.26-0.29,0.46-0.77,0.44-1.19
			C1010.29,671.26,1009.66,670.48,1008.81,670.48z"/>
		<path class="st1" d="M1028.83,666.96c-1.95,0-1.95,3.38,0,3.38C1030.78,670.34,1030.78,666.96,1028.83,666.96z"/>
		<path class="st1" d="M1038.71,661.16c-5.64-1.06-11.27-2.12-16.91-3.18c-0.81-0.15-1.63,0.24-1.86,1.18
			c-0.2,0.81,0.25,1.92,1.06,2.08c5.64,1.06,11.27,2.12,16.91,3.18c0.81,0.15,1.63-0.24,1.86-1.18
			C1039.97,662.42,1039.52,661.31,1038.71,661.16z"/>
		<path class="st1" d="M555.64,457.52c-21.63-7.84-43.87-13.56-66.4-17.09c-22.51-3.52-45.27-4.91-67.98-4.06
			c-12.74,0.48-25.46,1.66-38.1,3.53c-0.82,0.12-1.5,0.69-1.51,1.69c-0.01,0.82,0.7,1.81,1.51,1.69
			c22.47-3.32,45.19-4.45,67.84-3.38c22.51,1.07,44.93,4.31,66.94,9.7c12.45,3.05,24.77,6.78,36.89,11.18
			C556.7,461.45,557.49,458.19,555.64,457.52z"/>
		<path class="st1" d="M403.81,467.48c-0.45-1.04-1.41-1.52-2.34-1.87c-5.01-1.9-9.89-3.9-14.62-6.6c-4.6-2.64-9.01-5.71-13.14-9.19
			c-0.93-0.78-1.94-1.57-2.73-2.55c-0.94-1.17-1-2.24-0.28-3.57c1.21-2.23,2.95-4.19,4.7-5.88c4.05-3.9,9.08-6.34,14.36-7.17
			c1.92-0.3,1.1-3.56-0.81-3.26c-4.35,0.69-8.56,2.46-12.25,5.14c-1.81,1.31-3.51,2.84-5.04,4.55c-1.51,1.7-3.16,3.68-4.04,5.88
			c-2.12,5.28,3.25,8.79,6.49,11.37c3.92,3.11,8.06,5.88,12.37,8.26c2.47,1.36,4.99,2.6,7.56,3.72c1.22,0.53,2.45,1.04,3.7,1.51
			c0.69,0.26,1.38,0.52,2.08,0.76c0.04,0.01,0.11,0.04,0.18,0.07c-0.07,1.7,1.68,2.91,3.16,1.81
			C404.07,469.79,404.27,468.53,403.81,467.48z"/>
		<path class="st1" d="M188.52,454.51c-1.32-3.38-2.71-7.02-5.59-9.12c-2.62-1.91-5.81-1.9-8.79-1.4c-3.75,0.63-7.39,2.13-11.21,2.1
			c-1.95-0.01-1.95,3.36,0,3.38c3.84,0.03,7.51-1.34,11.26-2.08c3.46-0.68,6.95-0.41,9.11,3.07c1.05,1.7,1.78,3.66,2.53,5.55
			c0.77,1.97,1.46,3.98,1.98,6.05c1.02,4.06,1.28,8.38-0.89,12.03c-1.08,1.82,1.54,3.51,2.62,1.7
			C193.42,469.24,191.1,461.09,188.52,454.51z"/>
		<path class="st1" d="M212.15,484.97c-13.67,8.48-28.83,14-44.37,16.03c-4.42,0.58-8.87,0.87-13.32,0.91
			c-1.95,0.02-1.95,3.39,0,3.38c16.06-0.13,32.06-3.77,46.87-10.7c4.23-1.98,8.35-4.21,12.35-6.69
			C215.39,486.83,213.86,483.91,212.15,484.97z"/>
		<path class="st1" d="M227.5,479.34c-2.56,2.01-6.65,4.92-9.91,3.35c-3.79-1.82-2.88-8.36-2.47-11.91
			c0.99-8.58,3.28-19.99-4.11-26.06c-3.13-2.57-7.66-3.3-10.97-0.75c-1.59,1.23-0.08,4.16,1.53,2.92c2.84-2.19,6.67-0.94,8.88,1.77
			c2.71,3.31,3.04,8.31,2.77,12.55c-0.33,5.22-1.7,10.4-1.45,15.66c0.19,4.04,1.78,8.16,5.58,9.29c4.08,1.22,8.44-1.36,11.67-3.9
			C230.61,481.02,229.09,478.09,227.5,479.34z"/>
		<path class="st1" d="M236.82,453.22c-4.19,2.79-8.38,5.58-12.56,8.37c-1.67,1.11-0.15,4.03,1.53,2.92
			c4.19-2.79,8.38-5.58,12.56-8.37C240.02,455.02,238.5,452.1,236.82,453.22z"/>
		<path class="st1" d="M253.94,497.91c-12.78-17.63-10.6-42-8.57-63c0.21-2.16-2.82-2.14-3.03,0c-1.02,10.55-1.99,21.41-1.29,32.03
			c-0.14-0.27-0.32-0.5-0.55-0.65c-0.77-0.5-1.58-0.13-2.07,0.61c-0.13,0.19-0.03,0.04-0.11,0.16c-0.07,0.09-0.14,0.19-0.2,0.28
			c-0.16,0.21-0.32,0.41-0.48,0.6c-0.33,0.39-0.68,0.76-1.05,1.11c-0.58,0.54-1.4,1.15-2.23,1.63c-1.53,0.89-3.39,1.41-5.11,1.45
			c-0.82,0.02-1.51,0.76-1.51,1.69c0,0.9,0.69,1.71,1.51,1.69c4.68-0.12,9.02-2.72,11.79-6.9c0.04-0.06,0.07-0.14,0.1-0.21
			c0.56,6.87,1.84,13.63,4.32,20.13c1.62,4.25,3.72,8.18,6.33,11.77C253.03,501.99,255.16,499.58,253.94,497.91z"/>
		<path class="st1" d="M284.34,466.72c-4.81-2.12-7.57-8.11-12.83-9.29c0.89-1.49,1.7-3.04,2.42-4.65c0.76-1.69,1.43-3.45,2.01-5.23
			c0.51-1.58,0.96-3.31,0.62-4.99c-0.82-4.14-5.39-3.64-8.19-2.79c-3.65,1.11-6.77,3.66-8.92,7.1c-1.12,1.79,1.51,3.48,2.62,1.7
			c1.95-3.11,5.04-5.26,8.4-5.87c1.25-0.23,3.31-0.65,3.18,1.37c-0.11,1.7-0.88,3.48-1.49,5.01c-1.18,2.99-2.68,5.82-4.42,8.44
			c-4.12,1.19-7.02,5.85-9.07,9.98c-0.68,1.38,0.77,3.34,2.07,2.31c3.27-2.6,6.2-5.71,8.69-9.21c0.83-0.07,1.72,0.08,2.66,0.52
			c2.07,0.97,3.74,2.81,5.41,4.41c1.86,1.78,3.75,3.42,6.04,4.43C285.35,470.77,286.14,467.51,284.34,466.72z"/>
		<path class="st1" d="M298.38,467.52c-0.45-3.12-1.8-6.2-2.74-9.16c-2.15-6.71-4.29-13.41-6.44-20.12
			c-0.65-2.03-3.58-1.16-2.92,0.9c1.87,5.84,3.74,11.67,5.61,17.51l2.76,8.62c0.4,1.25,1.71,4.43,0.22,5.3
			c-1.73,1.01-0.2,3.93,1.53,2.92C298.39,472.31,298.7,469.8,298.38,467.52z"/>
		<path class="st1" d="M325.72,493.63l-0.14,5.27c-7.93,1.89-15.63,4.85-22.92,8.78c2.92-4.65,5.62-9.46,8.07-14.43
			c1.55-3.15,3.24-6.45,3.55-10.1c0.26-3.17-0.84-6.21-3.12-8.13c-4.05-3.4-9.79-2.65-14.13-0.45c-4.72,2.39-8.58,6.86-10.88,12
			c-0.19,0.41-0.36,0.84-0.53,1.26c-0.44-4.32-0.89-8.64-1.33-12.96c-0.22-2.13-3.25-2.16-3.03,0c0.77,7.48,1.54,14.97,2.31,22.45
			c-0.12,2.7,0.13,5.42,0.84,8.06c0.46,1.74,3.18,1.51,2.97-0.45c-0.26-2.53-0.52-5.05-0.78-7.58c0.36-7.34,3.99-14.49,9.6-18.44
			c3.46-2.44,8.26-4.02,12.16-1.86c5.63,3.11,1.65,10.68-0.47,14.96c-3.4,6.86-7.27,13.41-11.54,19.63
			c-0.97,1.42,0.86,3.07,2.07,2.31c9.06-5.7,18.85-9.74,29.04-12.05c0.66-0.15,1.09-0.92,1.11-1.63c0.06-2.21,0.12-4.42,0.18-6.63
			C328.8,491.45,325.77,491.46,325.72,493.63z"/>
	</g>
	<g id="click1" class="st0">
		<path class="st4" d="M459.47,316.04c-7.89-4.27-15.57-8.93-23-13.95c-0.05-1.12-1.27-1.75-2.12-1.45
			c-2.32-1.6-4.61-3.22-6.88-4.89c-0.6-0.44-1.75-0.15-2.05,0.54c-3.75,8.61-7.51,17.22-11.26,25.82c-0.76,1.75,1.82,3.28,2.59,1.51
			c3.53-8.1,7.06-16.19,10.59-24.29c1.94,1.41,3.91,2.79,5.89,4.15c-2.4,13.61-6.3,26.94-11.66,39.67c-0.8-0.07-1.64,0.41-1.62,1.44
			c0.01,0.85,0.03,1.7,0.04,2.55c0.02,1.38,2.16,2.19,2.8,0.76c6.06-13.63,10.48-27.93,13.15-42.6c6.09,4.08,12.34,7.94,18.74,11.52
			c-0.59,0.93-0.21,2.42,1.16,2.29c0.96-0.09,1.92-0.18,2.88-0.27C460.09,318.71,460.89,316.81,459.47,316.04z"/>
		<path class="st4" d="M383.4,399.51c-6.73,0.46-13.48,1.1-20.22,1.37c-2.63,0.1-5.46,0.05-7.76-1.4c-1.87-1.18-2.89-3.16-3.26-5.29
			c-0.84-4.81,1.22-9.79,3.79-13.74c2.73-4.21,6.78-7.9,11.78-9.07c4.98-1.17,10.9,0.4,13.77,4.85c1.04,1.62,3.64,0.11,2.59-1.51
			c-3.02-4.68-8.6-6.99-14.07-6.67c-5.98,0.35-11.22,3.82-14.88,8.42c-3.47,4.37-6.09,9.83-6.14,15.5
			c-0.02,2.59,0.55,5.31,2.08,7.44c1.74,2.44,4.42,3.82,7.34,4.27c3.84,0.59,7.83,0.02,11.67-0.24c4.44-0.31,8.87-0.61,13.31-0.92
			C385.32,402.38,385.33,399.38,383.4,399.51z"/>
		<path class="st4" d="M419.19,399.72c-4.13-0.04-8.25-0.08-12.38-0.11c-1.97-0.02-3.96,0.04-5.93-0.08
			c-1.2-0.07-2.73-0.21-3.67-1.05c-1.36-1.2-0.36-3.27,0.14-4.67c0.69-1.93,1.39-3.85,2.08-5.78c1.41-3.93,2.83-7.86,4.24-11.79
			c0.66-1.82-2.24-2.6-2.89-0.8c-1.61,4.47-3.22,8.94-4.83,13.41c-1.21,3.36-4.12,8.42-1.05,11.57c2.48,2.54,6.7,2.13,9.93,2.16
			l14.36,0.13C421.12,402.74,421.12,399.74,419.19,399.72z"/>
		<path class="st4" d="M437.87,372.6c-0.86-0.25-1.53,0.31-1.85,1.05c-4.15,9.83-7.7,19.89-10.63,30.15
			c-0.53,1.86,2.36,2.65,2.89,0.8c2.93-10.25,6.48-20.32,10.63-30.15C439.23,373.7,438.57,372.81,437.87,372.6z"/>
		<path class="st4" d="M470.9,377.16c-6.71-4.18-15.6-1.43-20.34,4.43c-2.56,3.16-4.17,6.98-4.99,10.94
			c-0.74,3.58-1.59,8.61,2.18,10.81c2.08,1.21,4.85,1.52,7.22,1.47c2.56-0.06,5.01-0.68,7.34-1.73c1.76-0.79,0.23-3.38-1.51-2.59
			c-3.27,1.47-7.2,1.8-10.62,0.65c-3.36-1.13-2.22-5.54-1.63-8.19c1.35-6.11,4.88-12.21,11.17-14.18c3.25-1.02,6.75-0.85,9.67,0.98
			C471.03,380.77,472.54,378.18,470.9,377.16z"/>
		<path class="st4" d="M506.65,380.78c-9.19,0.32-18.3,1.82-27.11,4.44c1.25-2.47,2.56-4.91,3.94-7.31
			c0.96-1.68-1.63-3.19-2.59-1.51c-1.89,3.3-3.66,6.66-5.31,10.08c-0.47,0.16-0.93,0.3-1.4,0.47c-1.44,0.51-1.23,2.45-0.17,2.89
			c-1.64,3.61-3.15,7.29-4.51,11.02c-0.23,0.17-0.41,0.43-0.51,0.79l-0.69,2.59c-0.5,1.88,2.27,2.61,2.89,0.8
			c1.87-5.5,4.06-10.87,6.54-16.11c0.16-0.05,0.32-0.1,0.48-0.15c0.01,0.05,0.01,0.1,0.03,0.15c2.21,7.8,5.52,15.27,9.85,22.13
			c1.03,1.63,3.62,0.13,2.59-1.51c-4.2-6.65-7.41-13.84-9.55-21.41c-0.02-0.08-0.05-0.14-0.08-0.21c6.31-1.83,12.77-3.07,19.31-3.7
			c-0.09,0.99,0.63,2.01,1.78,1.54c1.64-0.67,3.27-1.35,4.91-2.02C508.48,383.13,508.49,380.72,506.65,380.78z"/>
		<path class="st4" d="M550.17,374.85c-0.78-1.68-2.21-3.04-4.05-3.42c-2.3-0.47-4.55,0.52-6.58,1.49
			c-4.09,1.96-7.78,4.74-10.86,8.06c-1.31,1.41,0.8,3.54,2.12,2.12c2.26-2.44,4.83-4.54,7.7-6.23c1.99-1.17,6.28-4.02,8.35-1.71
			c0.42,0.47,0.73,1.04,0.95,1.65c-2.93-2.53-6.69-0.38-9.15,1.79c-2.98,2.62-5.91,5.37-8.46,8.42c-2.46,2.95-4.68,6.3-5.79,10.02
			c-0.47,1.6-0.62,3.51,0.35,4.96c1,1.51,2.81,1.87,4.5,1.78c6.94-0.35,13.23-4.31,17.32-9.79
			C550.34,388.94,552.99,380.91,550.17,374.85z M548.11,382.56c-0.31,2.61-1.21,5.15-2.51,7.43c-2.61,4.6-6.91,8.34-11.98,9.96
			c-1.2,0.38-2.43,0.66-3.68,0.78c-1.36,0.13-2.93,0.31-2.92-1.45c0.01-1.37,0.71-2.81,1.29-4.03c0.7-1.46,1.54-2.84,2.48-4.16
			c2.07-2.91,4.63-5.45,7.23-7.88c1.33-1.24,5.61-6.13,7.73-4.21c0.87,0.78,1.99,0.31,2.42-0.47
			C548.35,379.91,548.26,381.36,548.11,382.56z"/>
		<path class="st4" d="M522.75,412.59c-1.31-1.49-3.47-2.08-5.38-1.76c-2.04,0.34-3.74,1.61-5.26,2.97c-1.29,0.74-2.22,2-3.02,3.23
			c-0.44,0.68-0.14,1.66,0.54,2.05c0.73,0.43,1.61,0.14,2.05-0.54c0.11-0.17,0.23-0.35,0.35-0.53c0.29,0.27,0.61,0.5,0.95,0.68
			c0.1,0.55,0.46,1.05,1.05,1.19c2.96,0.68,7.37,0.83,9.25-2.08C524.35,416.16,524.01,414.03,522.75,412.59z M520.64,416.34
			c-0.06,0.06-0.12,0.12-0.18,0.18c-0.03,0.03-0.03,0.03-0.03,0.04c-0.02,0.01-0.04,0.01-0.09,0.05c-0.12,0.07-0.25,0.14-0.38,0.21
			c-0.03,0.02-0.05,0.03-0.06,0.04c-0.01,0-0.03,0.01-0.05,0.02c-0.13,0.04-0.25,0.09-0.38,0.13c-0.29,0.09-0.58,0.14-0.88,0.2
			c-0.02,0-0.02,0-0.03,0.01c-0.09,0.01-0.19,0.02-0.28,0.03c-0.13,0.01-0.26,0.02-0.38,0.02c0.11-0.57,0.05-1.17-0.18-1.72
			c-0.02-0.06-0.06-0.11-0.09-0.16c0.26-0.28,0.53-0.56,0.83-0.81c0.25-0.21,0.38-0.5,0.42-0.81c0.46,0.08,1.01,0.31,1.35,0.56
			c-0.04-0.03,0.19,0.17,0.25,0.23c0.06,0.06,0.26,0.3,0.22,0.24c-0.05-0.07,0.11,0.21,0.15,0.28c0.03,0.08,0.05,0.17,0.07,0.25
			c0,0.02,0.01,0.04,0.01,0.07c0,0.06,0.01,0.13,0,0.2c0,0.05-0.01,0.09-0.01,0.14c-0.03,0.11-0.06,0.22-0.09,0.33
			c-0.03,0.05-0.05,0.1-0.08,0.15C520.71,416.26,520.67,416.31,520.64,416.34z"/>
		<path class="st4" d="M569.98,387.94c-0.87-0.54-1.87-0.73-2.84-0.62c1.23-0.64,2.47-1.25,3.74-1.82c1.76-0.79,0.24-3.37-1.51-2.59
			c-6.42,2.87-12.36,6.72-17.62,11.38c-2.61,2.3-5.04,4.81-7.26,7.48c-1.11,1.33-2.17,2.71-3.18,4.12c-0.93,1.3-2.3,2.83-2.36,4.51
			c-0.12,3.57,5.16,3.89,7.72,3.87c3.4-0.02,6.72-1.03,9.74-2.56c3.12-1.58,5.95-3.75,8.47-6.15c2.47-2.35,5.1-5.1,6.68-8.14
			C573.14,394.37,573.26,389.97,569.98,387.94z M566.37,399.58c-3.51,4.2-7.8,8.05-12.89,10.2c-2.44,1.03-5.09,1.6-7.75,1.46
			c-0.63-0.03-1.25-0.11-1.87-0.23c-0.5-0.1-1.43-0.17-1.82-0.48c-0.05-0.04-0.07-0.05-0.1-0.07c0.02-0.28,0.37-0.74,0.48-0.91
			c0.43-0.68,0.9-1.34,1.36-1.99c3.18-4.47,6.96-8.53,11.15-12.08c2.77-2.35,5.74-4.44,8.85-6.3c-0.48,0.65-0.78,1.45-0.78,2.35
			c0,1.93,3,1.93,3,0c0-0.78,0.79-1.24,1.52-1.27c1.16-0.05,1.85,1.09,2.07,2.1C570.19,395.09,567.99,397.65,566.37,399.58z"/>
		<path class="st4" d="M592.35,418.14c-0.59-1.76-2.33-2.57-4.05-2.82c-1.45-0.21-2.93-0.31-4.41-0.34
			c-0.32-0.36-0.67-0.69-1.05-0.99c-3.1-2.37-7.83-1.74-10.34,1.2c-0.17,0.2-0.27,0.42-0.33,0.63c-3.15,0.47-6.27,1.15-9.33,2.05
			c-4,1.18-8.19,2.62-11.82,4.7c-2.53,1.45-5.58,5.53-2.1,7.79c1.67,1.09,4.25,1.08,6.17,1.27c2.22,0.21,4.45,0.28,6.68,0.21
			c4.51-0.15,9.02-0.85,13.35-2.11c3.44-1,7.31-2.29,9.43-5.38c1.26-1.84,1.55-4.14,0.99-6.22c0.49,0.02,0.98,0.04,1.47,0.07
			c0.65,0.05,1.46,0.07,2.03,0.43c0.13,0.08,0.83,0.66,0.49,0.88c-1.62,1.04-0.12,3.64,1.51,2.59
			C592.4,421.22,592.85,419.65,592.35,418.14z M581.95,422.83c-1.63,2.22-4.69,3.12-7.2,3.87c-3.26,0.98-6.61,1.65-10,1.95
			c-3.37,0.3-6.77,0.28-10.13-0.07c-0.94-0.1-1.87-0.21-2.8-0.38c-0.38-0.07-1.26-0.1-1.44-0.51c-0.36-0.81,1.31-2.01,1.86-2.36
			c2.65-1.68,5.89-2.77,8.85-3.76c3.09-1.04,6.26-1.86,9.48-2.46c3.66-0.68,7.38-1.03,11.11-1.07c0.22,0,0.45,0,0.67,0
			C583.05,419.57,582.97,421.45,581.95,422.83z"/>
	</g>
	<g id="clickHere">
		<path class="st5" d="M454.39,258.68c0.52-1.45-1.5-2.48-2.51-1.46c-1.22,1.24-2.38,2.53-3.51,3.85c0.18-1.09,0.22-2.16-0.45-3.13
			c-0.13-0.18-0.28-0.32-0.44-0.46c0.23-0.2,0.47-0.37,0.69-0.58c1.22-1.14-0.12-2.76-1.45-2.46c0-0.04-0.01-0.07-0.01-0.11
			c-0.12-1.17-1.63-2.14-2.56-1.06c-0.53,0.62-1.13,1.11-1.79,1.49c-0.35,0.16-0.7,0.31-1.04,0.48c-0.88,0.32-1.84,0.46-2.85,0.39
			c-0.5-0.03-0.94,0.25-1.22,0.66c-0.08-0.01-0.16-0.01-0.24-0.02c-0.2-0.45-0.63-0.78-1.31-0.78c-0.89,0-1.79,0-2.68,0
			c-0.24-0.09-0.51-0.1-0.78,0c-3.5,0-7.01,0-10.51,0c-0.98-0.02-1.95-0.06-2.93-0.07c-0.21,0-0.42,0-0.63,0
			c-0.34-0.76-1.24-1.27-2.08-0.71c-0.34,0.23-0.66,0.46-0.99,0.7c-2.06,0.01-4.12,0.04-6.18,0.09c-1.74,0-3.48,0-5.22,0
			c-0.35-0.72-1.28-1.21-2.14-0.76l-1.47,0.77c-0.54,0-1.08,0-1.63,0c0.36-1.67-1.8-2.43-2.75-1.09c-0.12,0.17-0.25,0.33-0.38,0.49
			c-0.13-0.2-0.3-0.38-0.5-0.53c-0.41-0.44-1.06-0.62-1.76-0.23c-1.43,0.8-2.85,1.6-4.28,2.4c0.2-0.27,0.4-0.53,0.6-0.8
			c1.16-1.54-1.44-3.04-2.59-1.51c-1.6,2.12-3.2,4.23-4.8,6.35c-0.95,1.26,0.85,2.73,2.05,2.05c0.33-0.18,0.66-0.37,0.99-0.55
			c-0.69,0.61-1.38,1.21-2.08,1.82c-0.74,0.65-0.5,1.64,0.13,2.18c-1.12,1.13-2.24,2.26-3.36,3.38c-1.16,1.16,0.41,3.4,1.82,2.36
			c0.17-0.12,0.33-0.25,0.5-0.37c-0.34,0.36-0.67,0.72-1.01,1.08c-0.71,0.76-0.47,1.67,0.13,2.16c-0.33,0.33-0.65,0.67-0.98,1.01
			c-1.37,1.37,0.71,3.44,2.12,2.12c1.28-1.19,2.59-2.35,3.93-3.47c-0.47,0.52-0.94,1.03-1.4,1.55c-0.92,0.96-1.82,1.95-2.69,2.96
			c-0.33,0.39-0.42,0.82-0.36,1.22c-0.16,0.17-0.33,0.33-0.49,0.5c-0.99,1.05-0.19,2.32,0.89,2.47c-0.32,0.3-0.64,0.6-0.96,0.9
			c-1.43,1.3,0.69,3.41,2.12,2.12c0.03-0.02,0.05-0.05,0.08-0.07c0.23,0.27,0.54,0.45,0.9,0.47c-0.48,0.49-0.96,0.97-1.44,1.46
			c-1.36,1.38,0.74,3.48,2.12,2.12c4.2-4.15,8.59-8.1,13.13-11.85c-2.36,2.45-4.78,4.85-7.31,7.13c-1.4,1.35,0.7,3.41,2.12,2.12
			c2.13-2.05,4.3-4.05,6.48-6.04c-0.21,0.23-0.43,0.45-0.65,0.67c-1.1,1.18,0.38,3.41,1.82,2.36c0.1-0.08,0.2-0.16,0.3-0.24
			c0,0,0,0,0,0c0,0,0.01-0.01,0.01-0.01c0.92-0.69,1.79-1.42,2.62-2.2c-0.1,1.09,1.16,2.28,2.25,1.51c0.76-0.54,1.5-1.1,2.23-1.68
			c-0.73,1.33,1.08,2.83,2.41,1.73c1.36-1.12,2.65-2.32,3.91-3.55c0.86-0.72,1.73-1.41,2.63-2.08c-0.76,1.2-1.66,2.31-2.66,3.31
			c-1.05,0.84-2.09,1.69-3.11,2.58c-1.27,1.11,0.41,3.32,1.82,2.36c1.15-0.78,2.21-1.66,3.18-2.62c0.06-0.05,0.12-0.1,0.19-0.15
			c0.29,0.74,1.11,1.23,2.06,0.7c0.67-0.38,1.32-0.79,1.95-1.22l-0.95,0.76c-1.34,1.07,0.39,3.23,1.82,2.36
			c1.23-0.76,2.34-1.66,3.35-2.66c0.48-0.38,0.96-0.77,1.44-1.15c-0.05,0.05-0.09,0.1-0.13,0.15c-1.29,1.43,0.78,3.53,2.12,2.12
			c0.23-0.25,0.46-0.49,0.7-0.73c0.03,0.05,0.07,0.11,0.1,0.16c-1.14,1.4,0.8,3.17,2.22,2c0.65-0.54,1.28-1.11,1.89-1.69
			c0.33,0.32,0.79,0.51,1.36,0.41c0.22-0.04,0.44-0.05,0.65-0.07c0.37,0.64,1.15,1.07,1.9,0.69c0.8,0.64,1.87,0.9,2.93,0.77
			c0.38,0.29,0.74,0.6,1.06,0.96c0.73,0.8,2.29,0.43,2.51-0.66c0.16-0.8,0.32-1.6,0.48-2.39c0.7,0.2,1.5-0.11,1.82-1
			c0.41-1.14,0.82-2.27,1.23-3.41c0.71-1.11,1.12-2.38,1.34-3.71L454.39,258.68z M438.78,273.63c-0.25-0.29-0.61-0.5-1.07-0.49
			c-0.21,0-0.41,0-0.62,0.01c0.78-0.52,1.58-1.03,2.37-1.52C439.24,272.29,439.01,272.96,438.78,273.63z M430.61,273.19
			c-0.06,0-0.13,0-0.19,0c0.7-0.59,1.39-1.19,2.05-1.83c0.33-0.22,0.65-0.44,0.98-0.66L430.61,273.19z M400.28,263.91
			c-0.2,0.02-0.41,0.07-0.63,0.2c-0.36,0.21-0.71,0.44-1.06,0.66c0.01-0.09,0-0.17,0-0.26c1.04-0.73,2.08-1.47,3.13-2.2
			C401.27,262.86,400.79,263.39,400.28,263.91z M405.19,268.9c-0.03-0.53-0.38-1.01-0.84-1.26c0.05-0.06,0.1-0.13,0.15-0.19
			c0.3,0.08,0.62,0.05,0.96-0.12c0.12,0.36,0.36,0.69,0.66,0.91C405.81,268.46,405.5,268.68,405.19,268.9z M407,259.56
			c0.17-0.33,0.31-0.68,0.47-1.02c0.35-0.01,0.7-0.03,1.04-0.04C408.01,258.86,407.5,259.21,407,259.56z M411.16,271.01
			c0.03-0.06,0.06-0.12,0.08-0.19c0.21-0.53,0.1-0.96-0.17-1.27c0.36-0.29,0.72-0.59,1.07-0.88c-0.16,0.49,0.02,0.99,0.37,1.36
			C412.06,270.35,411.6,270.67,411.16,271.01z M421.34,258.96c0.12-0.15,0.19-0.31,0.23-0.46c0.3,0,0.6,0,0.9,0
			c0.22,0.01,0.43,0.02,0.65,0.02c0,0.09,0.01,0.17,0.03,0.25c-0.6,0.38-1.19,0.77-1.77,1.18c-0.08-0.2-0.21-0.38-0.39-0.53
			C421.11,259.27,421.23,259.11,421.34,258.96z M421.13,270.44c0.66-0.58,1.34-1.16,1.99-1.75c1.45-1.15,2.96-2.22,4.53-3.21
			c-1.69,1.74-3.51,3.35-5.45,4.8c-0.82,0.61-0.78,1.65-0.31,2.29c-0.04,0.02-0.06,0.05-0.09,0.08c-0.17-0.19-0.39-0.35-0.63-0.45
			c0.03-0.04,0.06-0.07,0.09-0.11C421.67,271.52,421.52,270.89,421.13,270.44z M421.23,276.27c0.18-0.41,0.34-0.82,0.5-1.23
			c0.15,0.12,0.32,0.22,0.52,0.27c0.04,0.01,0.09,0.02,0.13,0.03c-0.02,0.08-0.04,0.15-0.04,0.23
			C421.97,275.8,421.59,276.03,421.23,276.27z"/>
	</g>
	<g id="reset" class="st0">
		<path class="st4" d="M254.14,544.86c-0.35-3.25-0.37-7.4-3.44-9.4c-2.94-1.92-7.83-1.7-11.16-1.99c-4.4-0.39-8.82-0.55-13.24-0.56
			c-16.32-0.03-32.66,1.58-48.94,2.85c-2.34-2.57-7.48-2.6-8.66,1.78c-3.4,12.55-5.07,25.44-4.95,38.41
			c-0.64,1.01-0.93,2.27-0.62,3.75c0.35,1.66,0.71,3.31,1.06,4.97c0.95,4.46,7.13,4.51,9.17,1.3c1.02,0.63,2.32,0.89,3.84,0.55
			c17.58-3.96,35.68-5.03,53.61-3.04c6.24,0.69,15.64,4.54,20.18-1.69c2.03-2.79,2.23-6.67,2.68-9.95c0.6-4.47,0.99-8.96,1.06-13.47
			C254.82,553.85,254.62,549.34,254.14,544.86z M201.82,545.2c-0.54-0.11-1.08-0.23-1.62-0.36c-0.61-0.25-1.23-0.46-1.87-0.64
			c1.53-0.11,3.06-0.22,4.6-0.32C202.55,544.33,202.18,544.77,201.82,545.2z M213.86,572.51c0.25-0.19,0.49-0.39,0.74-0.58
			c0.24,0.22,0.51,0.42,0.79,0.59C214.88,572.52,214.37,572.52,213.86,572.51z"/>
		<path class="st4" d="M243.77,475.9c-6.99,7.3-13.32,15.17-18.95,23.55c-0.2-0.04-0.4-0.07-0.6-0.08c1.18-2.67,2.36-5.34,3.55-8.02
			c2.58-5.83-6.03-10.93-8.63-5.05c-2.49,5.64-4.99,11.28-7.48,16.92c-1.64,3.72-4.68,8.38-2.05,12.4
			c2.33,3.55,6.59,3.72,10.41,3.59c5.15-0.17,10.3-0.4,15.44-0.62c0.79,0.74,1.9,1.2,3.33,1.15c3.44-0.11,6.61-2.63,6.15-6.34
			c-0.32-2.6-2.03-5.12-5-5c-0.9,0.04-4.78,0.05-9.09,0.11c5.82-9.17,12.47-17.67,20-25.53C255.3,478.33,248.24,471.25,243.77,475.9
			z"/>
		<path class="st4" d="M287.58,469.26c2.97-1.65,6.67-1.04,8.05,2.19c2.53,5.9,11.15,0.81,8.63-5.05
			c-2.81-6.55-10.72-9.14-17.33-7.52c-7.86,1.93-12.51,9.15-14.76,16.47c-2.2,7.16-3.44,16.6,2.05,22.65
			c5.99,6.61,15.4,5.64,23.3,4.01c6.3-1.3,3.63-10.94-2.66-9.64c-3.5,0.72-9.52,2.2-12.62-0.45c-3.35-2.86-1.79-8.9-0.82-12.54
			C282.42,475.7,284.04,471.23,287.58,469.26z"/>
		<path class="st4" d="M318.24,464.31c-1.42,7.1-2.84,14.2-4.27,21.3c-1.02,5.09-3.83,11.94,0.76,16.05c1.22,1.1,3.2,1.97,4.86,1.29
			c0.24-0.1,0.48-0.19,0.71-0.29c3.86-1.58,4.07-6.3,2.08-8.66c0.5-1.32,0.93-4.27,1.04-4.8c0.49-2.47,0.99-4.94,1.48-7.41
			c0.99-4.94,1.98-9.88,2.97-14.82C329.14,460.68,319.5,457.99,318.24,464.31z"/>
		<path class="st4" d="M352.52,460.7c-0.17,0.02-0.62,0.12-0.99,0.14c-0.06-0.01-0.16-0.03-0.31-0.06
			c-0.16-0.04-0.32-0.08-0.48-0.14c-0.14-0.07-0.28-0.15-0.42-0.23c0,0,0,0,0,0c-0.15-0.14-0.29-0.28-0.43-0.43
			c-1.8-1.91-5.28-1.95-7.07,0c-1.88,2.04-1.92,5.04,0,7.07c2.41,2.55,6.17,4.12,9.69,3.65c1.38-0.19,2.51-0.44,3.54-1.46
			c0.87-0.87,1.52-2.29,1.46-3.54C357.41,463.29,355.3,460.33,352.52,460.7z"/>
		<path class="st4" d="M341.09,479.26c-5.3,6.29-7.29,14.59-4.58,22.48c2.08,6.05,11.74,3.45,9.64-2.66
			c-1.5-4.37-1.06-9.12,2.01-12.75C352.28,481.44,345.25,474.33,341.09,479.26z"/>
		<path class="st4" d="M373.35,491.13c3-0.98,6.34,0.21,9.14,1.29c6.01,2.31,8.61-7.35,2.66-9.64c-5.53-2.13-12.23-3.03-17.64,0.01
			c-4.34,2.44-7.59,7.26-7.44,12.34c0.35,12.15,14.13,12.95,23.09,11.28c6.32-1.18,3.64-10.82-2.66-9.64
			c-2.33,0.43-9.93,1.84-10.44-1.85C369.81,493.12,371.92,491.6,373.35,491.13z"/>
		<path class="st4" d="M434.95,477.32c-5.19,0.58-10.33,1.37-15.4,2.63c-3.77,0.93-8.79,1.82-12.08,4.29
			c0.01-0.01,0.01-0.03,0.02-0.04c2.16-5.66,4.32-11.32,6.48-16.98c2.3-6.02-7.37-8.62-9.64-2.66c-2.05,5.36-4.09,10.73-6.14,16.09
			c-1.95,5.11-4.65,10.39-5.93,15.71c-0.85,3.52-0.01,7.44,3.36,9.27c3.36,1.83,7.27,0.71,9.19-2.54c1.66-2.82,0.26-5.5-1.95-6.73
			c0.4-1.07,0.82-2.14,1.23-3.21c0.07-0.17,0.13-0.34,0.2-0.52c1.47,4.78,7.21,9.3,10.44,12.32c4.7,4.39,11.79-2.67,7.07-7.07
			c-1.97-1.84-3.96-3.66-5.91-5.52c-0.07-0.07-0.32-0.35-0.6-0.65c0.73-0.19,1.64-0.64,2.34-0.85c5.66-1.69,11.46-2.87,17.34-3.52
			C441.28,486.62,441.35,476.61,434.95,477.32z"/>
		<path class="st4" d="M450.53,474.62c-3.42,6.23-8.13,12.71-10.38,19.46c-1.48,4.43-1.14,10.07,3.67,12.23
			c5.59,2.51,10.5-5.33,5.69-8.29c0.04-0.18,0.06-0.43,0.08-0.75c0.12-0.28,0.25-0.57,0.37-0.85c0.84-2.02,2.17-3.95,3.22-5.87
			c1.99-3.63,3.99-7.26,5.98-10.89C462.26,474.03,453.63,468.98,450.53,474.62z"/>
		<path class="st4" d="M436.16,513.2c-0.16-0.24-0.33-0.46-0.52-0.67c-0.12-0.48-0.3-0.95-0.53-1.34c-0.61-1.04-1.8-2.03-2.99-2.3
			c-1.28-0.29-2.72-0.23-3.85,0.5c-1.12,0.72-1.9,1.7-2.3,2.99c-0.52,1.67-0.23,3.56,0.61,5.07c0.86,1.54,2.27,2.55,3.92,3.09
			c1.2,0.39,2.78,0.12,3.85-0.5c1.04-0.61,2.03-1.8,2.3-2.99C436.96,515.77,436.89,514.33,436.16,513.2z"/>
		<path class="st4" d="M475.81,478.42c-6.49,7.36-11.78,15.5-15.64,24.53c-2.5,5.85,6.11,10.95,8.63,5.05
			c3.52-8.23,8.15-15.78,14.08-22.51C487.13,480.69,480.08,473.59,475.81,478.42z"/>
		<path class="st4" d="M459.24,511.39c-2.27-1.2-5.59-0.7-6.84,1.79c-0.7,1.39-1.39,2.78-2.09,4.17c-1.17,2.34-0.7,5.52,1.79,6.84
			c2.27,1.2,5.59,0.7,6.84-1.79c0.7-1.39,1.39-2.78,2.09-4.17C462.2,515.89,461.73,512.7,459.24,511.39z"/>
	</g>
</g>
<g id="clickOtherURL">
	<path class="st6" d="M425.5,422.5h-302c-6.6,0-12-5.4-12-12v-14c0-6.6,5.4-12,12-12h302c6.6,0,12,5.4,12,12v14
		C437.5,417.1,432.1,422.5,425.5,422.5z"/>
	<text transform="matrix(1 0 0 1 175.9565 414.9131)" class="st7 st8">Go To Google</text>
</g>
</svg>
